<svg xmlns="http://www.w3.org/2000/svg" width="411.59" height="461.89" viewBox="0 0 411.59 461.89" data-app="Xyris">
    <defs>
    </defs>
    <g id="Background_Complete" transform-origin="center" style="transform-box: fill-box;">
        <g transform-origin="center" style="transform-box: fill-box;">
            <rect x="23.79" y="401.99" width="32.41" height="11.19" fill="#ebebeb">
            </rect>
            <path d="m38.12,427.29l-16.09.29c-5.41.09-10.87.16-16.32.16h-.45s0-.45,0-.45l-.05-11.19v-.5s.5,0,.5,0l16.2.07c5.4.02,10.8.12,16.2.18h.26s0,.25,0,.25l-.25,11.19Zm0,0l-.25-11.19.25.25c-5.4.06-10.8.16-16.2.18l-16.2.07.5-.5-.05,11.19-.45-.45c5.35,0,10.69.07,16.09.16l16.32.29Z" fill="#ebebeb">
            </path>
            <path d="m226.49,171.34c-9.61.15-22.91.47-32.41.45h-.45s0-.45,0-.45l-.05-11.19v-.5s.5,0,.5,0c9.56.03,22.99.09,32.41.25h.26s0,.25,0,.25l-.25,11.19h0Zm0,0l-.25-11.19.25.25c-5.4.06-10.8.16-16.2.18l-16.2.07.5-.5-.05,11.19-.45-.45c9.3,0,22.95.29,32.41.45h0Z" fill="#ebebeb">
            </path>
            <rect x="176" y="174.26" width="32.41" height="11.19" fill="#ebebeb">
            </rect>
            <path d="m190.41,171.34c-9.61.15-22.91.47-32.41.45h-.45s0-.45,0-.45l-.05-11.19v-.5s.5,0,.5,0c9.56.03,22.99.09,32.41.25h.26s0,.25,0,.25l-.25,11.19h0Zm0,0l-.25-11.19.25.25c-5.4.06-10.8.16-16.2.18l-16.2.07.5-.5-.05,11.19-.45-.45c9.3,0,22.95.29,32.41.45h0Z" fill="#ebebeb">
            </path>
            <path d="m406.38,427.29l-16.09.29c-5.41.09-10.87.16-16.32.16h-.45s0-.45,0-.45l-.05-11.19v-.5s.5,0,.5,0l16.2.07c5.4.02,10.8.12,16.2.18h.26s0,.25,0,.25l-.25,11.19Zm0,0l-.25-11.19.25.25c-5.4.06-10.8.16-16.2.18l-16.2.07.5-.5-.05,11.19-.45-.45c5.35,0,10.69.07,16.09.16l16.32.29Z" fill="#ebebeb">
            </path>
            <path d="m388.3,69.89l-16.09.29c-5.41.09-10.87.16-16.32.16h-.45s0-.45,0-.45l-.05-11.19v-.5s.5,0,.5,0l16.2.07c5.4.02,10.8.12,16.2.18h.26s0,.25,0,.25l-.25,11.19Zm0,0l-.25-11.19.25.25c-5.4.06-10.8.16-16.2.18l-16.2.07.5-.5-.05,11.19-.45-.45c5.35,0,10.69.07,16.09.16l16.32.29Z" fill="#ebebeb">
            </path>
            <rect x="373.97" y="72.81" width="32.41" height="11.19" fill="#ebebeb">
            </rect>
            <rect x="13.84" y="58.7" width="32.41" height="11.19" fill="#ebebeb">
            </rect>
            <animateTransform id="ani01" attributeName="transform" type="translate" begin="-0.00001" dur="2.00002" keyTimes="0; 0.49994170981109454; 1" values="0, -25;0, 25;0, -25" fill="freeze" additive="sum" calcMode="spline" keySplines="0.42 0 0.58 1;0.42 0 0.58 1" repeatCount="3">
            </animateTransform>
        </g>
        <g transform-origin="center" style="transform-box: fill-box;">
            <path d="m395.27,95.93h-161.2c-9,0-16.31,7.43-16.31,16.61v331.84c0,9.16,7.3,16.61,16.31,16.61h161.2c9.01,0,16.32-7.45,16.32-16.61V112.55c0-9.18-7.31-16.61-16.32-16.61Zm6.13,338.2c0,8.73-6.54,15.8-14.61,15.8h-144.21c-8.09,0-14.63-7.07-14.63-15.8V125.12c0-17.79,6.54-18.66,14.63-18.66h28.88c1.68,0,3.05,1.91,3.05,4.27v1.02c0,5.54,3.03,5.56,6.76,5.56h66.81c3.76,0,6.76-.02,6.76-5.56v-1.02c0-2.36,1.35-4.27,3.06-4.27h28.89c8.07,0,14.61,2.36,14.61,18.66v309.01Z" fill="#c7c7c7">
            </path>
            <path d="m323.78,110.39h-18.22c-.62,0-1.13-.5-1.13-1.13h0c0-.62.5-1.13,1.13-1.13h18.22c.62,0,1.13.5,1.13,1.13h0c0,.62-.5,1.13-1.13,1.13Z" fill="#fff">
            </path>
            <g>
                <path d="m401.4,125.12v309.01c0,8.73-6.54,15.8-14.61,15.8h-144.21c-8.09,0-14.63-7.07-14.63-15.8V125.12c0-17.79,6.54-18.66,14.63-18.66h28.88c1.68,0,3.05,1.91,3.05,4.27v1.02c0,5.54,3.03,5.56,6.76,5.56h66.81c3.76,0,6.76-.02,6.76-5.56v-1.02c0-2.36,1.35-4.27,3.06-4.27h28.89c8.07,0,14.61,2.36,14.61,18.66Z" fill="#fff">
                </path>
                <g>
                    <rect x="227.95" y="126.17" width="173.45" height="117.34" fill="#ebebeb">
                    </rect>
                    <g>
                        <path d="m247,163.05c-1.39,7.32,4.91,13.62,12.23,12.23,4.09-.78,7.39-4.07,8.16-8.16,1.39-7.32-4.91-13.62-12.23-12.23-4.09.77-7.39,4.07-8.16,8.16Z" fill="#fff">
                        </path>
                        <polygon points="309.55 218.75 401.4 218.75 355.47 173.41 309.55 218.75" fill="#fff">
                        </polygon>
                        <polygon points="274.31 218.79 350.14 218.79 312.22 189.27 274.31 218.79" fill="#dbdbdb">
                        </polygon>
                        <rect x="227.95" y="218.74" width="173.45" height="24.77" fill="#dbdbdb">
                        </rect>
                    </g>
                    <rect x="227.95" y="229.38" width="173.45" height="14.13" fill="#dbdbdb">
                    </rect>
                    <path d="m401.39,125.12v17.57h-173.45v-17.57c0-17.79,6.55-18.66,14.63-18.66h28.88c1.68,0,3.06,1.91,3.06,4.27v1.02c0,5.54,3.03,5.56,6.76,5.56h66.8c3.76,0,6.76-.02,6.76-5.56v-1.02c0-2.36,1.36-4.27,3.06-4.27h28.9c8.06,0,14.6,2.37,14.6,18.66Z" fill="#dbdbdb">
                    </path>
                    <g>
                        <path d="m377.71,235.53h-127.34c-.45,0-.82.37-.82.82s.37.82.82.82h127.34c.45,0,.82-.37.82-.82s-.37-.82-.82-.82Z" fill="#a6a6a6">
                        </path>
                        <path d="m250.37,235.53c-.45,0-.82.37-.82.82s.37.82.82.82h87.1v-1.63h-87.1Z" fill="#fff" opacity=".8">
                        </path>
                        <path d="m335.84,236.34c0-.9.73-1.63,1.63-1.63s1.63.73,1.63,1.63-.73,1.63-1.63,1.63-1.63-.73-1.63-1.63Z" fill="#fff">
                        </path>
                    </g>
                    <g>
                        <polygon points="391.15 233.7 391.15 234.45 391.15 236.08 391.9 236.08 391.9 234.45 393.52 234.45 393.52 233.7 391.9 233.7 391.15 233.7" fill="#a6a6a6">
                        </polygon>
                        <polygon points="396.03 233.7 394.41 233.7 394.41 234.45 396.03 234.45 396.03 236.08 396.78 236.08 396.78 234.45 396.78 233.7 396.03 233.7" fill="#a6a6a6">
                        </polygon>
                        <polygon points="396.03 238.44 394.41 238.44 394.41 239.19 396.03 239.19 396.78 239.19 396.78 238.44 396.78 236.82 396.03 236.82 396.03 238.44" fill="#a6a6a6">
                        </polygon>
                        <polygon points="391.9 236.82 391.15 236.82 391.15 238.44 391.15 239.19 391.9 239.19 393.52 239.19 393.52 238.44 391.9 238.44 391.9 236.82" fill="#a6a6a6">
                        </polygon>
                    </g>
                    <polygon points="233.89 233.96 233.89 238.72 237.72 236.34 233.89 233.96" fill="#a6a6a6">
                    </polygon>
                    <g>
                        <path d="m239.8,236.41c0-.21.05-.4.15-.54.1-.14.24-.25.42-.25s.32.11.42.25c.1.14.15.33.15.54s-.05.4-.15.54c-.09.14-.24.25-.42.25s-.33-.11-.42-.25c-.1-.14-.15-.33-.15-.54Zm.89,0c0-.16-.05-.3-.11-.4-.06-.09-.14-.14-.21-.14-.07,0-.15.04-.21.14-.06.1-.11.24-.11.4s.05.3.11.4c.07.1.14.14.21.14s.14-.04.21-.14c.06-.1.11-.24.11-.4Z" fill="#a6a6a6">
                        </path>
                        <path d="m241.4,236.41c0-.21.05-.4.15-.54.1-.14.24-.25.42-.25s.32.11.42.25c.1.14.15.33.15.54s-.05.4-.15.54c-.09.14-.24.25-.42.25s-.33-.11-.42-.25c-.1-.14-.15-.33-.15-.54Zm.89,0c0-.16-.05-.3-.11-.4-.06-.09-.14-.14-.21-.14-.07,0-.15.04-.21.14-.06.1-.11.24-.11.4s.05.3.11.4c.07.1.14.14.21.14s.14-.04.21-.14c.06-.1.11-.24.11-.4Z" fill="#a6a6a6">
                        </path>
                        <path d="m243.23,235.98c.09,0,.17.08.17.17s-.08.17-.17.17-.17-.07-.17-.17.07-.17.17-.17Zm0,.9c.09,0,.17.08.17.17s-.08.17-.17.17-.17-.07-.17-.17.07-.17.17-.17Z" fill="#a6a6a6">
                        </path>
                        <path d="m243.56,236.41c0-.21.05-.4.15-.54.1-.14.24-.25.42-.25s.32.11.42.25c.1.14.15.33.15.54s-.05.4-.15.54c-.1.14-.24.25-.42.25s-.33-.11-.42-.25c-.1-.14-.15-.33-.15-.54Zm.89,0c0-.16-.04-.3-.11-.4-.06-.09-.14-.14-.21-.14-.07,0-.15.04-.21.14-.06.1-.11.24-.11.4s.05.3.11.4c.07.1.14.14.21.14s.14-.04.21-.14c.06-.1.11-.24.11-.4Z" fill="#a6a6a6">
                        </path>
                        <path d="m245.17,236.41c0-.21.05-.4.15-.54.1-.14.24-.25.42-.25s.32.11.42.25c.1.14.15.33.15.54s-.05.4-.15.54c-.1.14-.24.25-.42.25s-.33-.11-.42-.25c-.1-.14-.15-.33-.15-.54Zm.89,0c0-.16-.04-.3-.11-.4-.06-.09-.14-.14-.21-.14-.07,0-.15.04-.21.14-.06.1-.11.24-.11.4s.05.3.11.4c.07.1.14.14.21.14s.14-.04.21-.14c.06-.1.11-.24.11-.4Z" fill="#a6a6a6">
                        </path>
                    </g>
                    <g>
                        <path d="m382.03,236.41c0-.21.05-.4.15-.54.1-.14.24-.25.42-.25s.32.11.42.25c.1.14.15.33.15.54s-.05.4-.15.54c-.1.14-.24.25-.42.25s-.33-.11-.42-.25c-.1-.14-.15-.33-.15-.54Zm.89,0c0-.16-.04-.3-.11-.4-.06-.09-.14-.14-.21-.14-.07,0-.15.04-.21.14-.06.1-.11.24-.11.4s.05.3.11.4c.07.1.14.14.21.14s.14-.04.21-.14c.06-.1.11-.24.11-.4Z" fill="#a6a6a6">
                        </path>
                        <path d="m384.47,236.24c.11.11.16.25.16.4s-.06.29-.16.4c-.11.11-.25.16-.4.16h0c-.14,0-.29-.05-.39-.16-.05-.05-.05-.13,0-.18.05-.05.13-.05.18,0,.06.06.14.09.22.09s.16-.03.21-.09c.06-.06.09-.14.09-.21,0-.08-.03-.16-.09-.22-.06-.06-.14-.09-.21-.09s-.16.03-.22.09c-.05.05-.13.05-.18,0,0,0-.02-.02-.02-.03,0,0,0,0,0,0,0,0,0,0,0-.01,0,0,0-.01,0-.02,0,0,0,0,0,0,0-.01,0-.03,0-.04l.07-.59s.03-.07.06-.09c0,0,0,0,0,0,0,0,0,0,0,0,.02,0,.04-.01.06-.01h.67c.07,0,.13.06.13.13,0,.07-.06.13-.13.13h-.56l-.03.22s.1-.02.15-.02c.14,0,.29.05.4.16Z" fill="#a6a6a6">
                        </path>
                        <path d="m385.22,235.98c.09,0,.17.08.17.17s-.08.17-.17.17-.17-.07-.17-.17.07-.17.17-.17Zm0,.9c.09,0,.17.08.17.17s-.08.17-.17.17-.17-.07-.17-.17.07-.17.17-.17Z" fill="#a6a6a6">
                        </path>
                        <path d="m386.4,236.24c.11.11.16.25.16.4s-.05.29-.16.4c-.11.11-.25.16-.4.16s-.29-.06-.39-.16c-.05-.05-.05-.13,0-.18.05-.05.13-.05.18,0,.06.06.14.09.21.09s.16-.03.22-.09c.06-.06.09-.14.09-.22s-.03-.16-.09-.21c-.06-.06-.14-.09-.21-.09-.04,0-.07-.01-.09-.04t0,0c-.05-.05-.05-.13,0-.18l.23-.23h-.37c-.07,0-.13-.06-.13-.13s.06-.13.13-.13h.67c.07,0,.13.06.13.13,0,.02,0,.04-.02.06,0,.01-.01.02-.02.03l-.28.29c.06.03.11.06.16.11Z" fill="#a6a6a6">
                        </path>
                        <path d="m387.75,236.24c.11.11.16.25.16.4s-.06.29-.16.4c-.11.11-.25.16-.4.16h0c-.14,0-.29-.05-.39-.16-.05-.05-.05-.13,0-.18.05-.05.13-.05.18,0,.06.06.14.09.22.09s.16-.03.21-.09c.06-.06.09-.14.09-.21,0-.08-.03-.16-.09-.22-.06-.06-.14-.09-.21-.09s-.16.03-.22.09c-.05.05-.13.05-.18,0,0,0-.02-.02-.02-.03,0,0,0,0,0,0,0,0,0,0,0-.01,0,0,0-.01,0-.02,0,0,0,0,0,0,0-.01,0-.03,0-.04l.07-.59s.03-.07.06-.09c0,0,0,0,0,0,0,0,0,0,0,0,.02,0,.04-.01.06-.01h.67c.07,0,.13.06.13.13,0,.07-.06.13-.13.13h-.56l-.03.22c.05-.01.1-.02.15-.02.14,0,.29.05.4.16Z" fill="#a6a6a6">
                        </path>
                    </g>
                    <g>
                        <g>
                            <rect x="387.8" y="132.06" width="5.28" height="1.04" fill="#a6a6a6">
                            </rect>
                            <rect x="387.8" y="134.16" width="5.28" height="1.04" fill="#a6a6a6">
                            </rect>
                            <rect x="387.8" y="136.26" width="5.28" height="1.04" fill="#a6a6a6">
                            </rect>
                        </g>
                        <rect x="236.27" y="131.47" width="98.34" height="2.14" fill="#a6a6a6">
                        </rect>
                        <rect x="236.27" y="135.71" width="44.26" height="1.68" fill="#a6a6a6">
                        </rect>
                    </g>
                    <g>
                        <g>
                            <rect x="309.04" y="178.05" width="3.98" height="13.59" fill="#a6a6a6">
                            </rect>
                            <rect x="316.32" y="178.05" width="3.98" height="13.59" fill="#a6a6a6">
                            </rect>
                        </g>
                        <circle cx="314.67" cy="184.84" r="15.31" transform="translate(57.25 443.53) rotate(-75.57)" stroke="#c7c7c7" fill="none" stroke-miterlimit="10" stroke-width=".75px">
                        </circle>
                        <g>
                            <polygon points="278.5 181.15 278.5 188.53 270.92 184.84 278.5 181.15" fill="#a6a6a6">
                            </polygon>
                            <rect x="269.58" y="180.4" width="1.33" height="8.89" fill="#a6a6a6">
                            </rect>
                        </g>
                        <g>
                            <polygon points="350.84 188.53 350.84 181.15 358.43 184.84 350.84 188.53" fill="#a6a6a6">
                            </polygon>
                            <rect x="358.43" y="180.4" width="1.33" height="8.89" fill="#a6a6a6">
                            </rect>
                        </g>
                    </g>
                </g>
                <g>
                    <g id="u5Zjqx">
                        <g>
                            <path d="m266.47,113.4c-.09.09-.19.18-.28.28-.05.05-.11.11-.16.16-.75-.73-1.64-1.12-2.69-1.12-1.05,0-1.94.39-2.69,1.12-.05-.05-.1-.11-.15-.16-.09-.09-.18-.18-.28-.28,0,0,0,0,0,0h0s.01-.02.02-.02c.12-.1.23-.21.35-.31.25-.21.53-.38.82-.52.34-.17.7-.29,1.08-.36.18-.03.36-.05.54-.07.06,0,.46,0,.47,0,.12,0,.25.01.37.03.34.04.67.12.99.24.23.09.46.19.67.31.23.13.44.28.64.45.1.09.2.18.29.27h0Z" fill="#fff">
                            </path>
                            <path d="m261.54,114.72c-.15-.15-.29-.29-.44-.44.5-.49,1.1-.81,1.79-.9,1.04-.14,1.94.18,2.7.89-.15.15-.3.29-.44.44-.5-.48-1.1-.75-1.8-.75-.7,0-1.3.26-1.81.75Z" fill="#fff">
                            </path>
                            <path d="m264.71,115.16c-.15.15-.29.29-.44.44-.25-.25-.56-.38-.92-.38-.36,0-.67.14-.92.39-.15-.15-.29-.29-.44-.44.7-.73,1.95-.79,2.73,0Z" fill="#fff">
                            </path>
                        </g>
                        <path d="m263.74,115.99c0,.22-.18.4-.4.4s-.4-.18-.4-.4.18-.4.4-.4.4.18.4.4Z" fill="#fff">
                        </path>
                    </g>
                    <g>
                        <path d="m239.26,114.25c0-.63.51-1.15,1.15-1.15s1.15.51,1.15,1.15-.51,1.15-1.15,1.15-1.15-.51-1.15-1.15Z" fill="#fff">
                        </path>
                        <path d="m242.88,114.25c0-.63.51-1.15,1.15-1.15s1.15.51,1.15,1.15-.51,1.15-1.15,1.15-1.15-.51-1.15-1.15Z" fill="#fff">
                        </path>
                        <path d="m246.5,114.25c0-.63.51-1.15,1.15-1.15s1.15.51,1.15,1.15-.51,1.15-1.15,1.15-1.15-.51-1.15-1.15Z" fill="#fff">
                        </path>
                        <path d="m250.12,114.25c0-.63.51-1.15,1.15-1.15s1.15.51,1.15,1.15-.51,1.15-1.15,1.15-1.15-.51-1.15-1.15Z" fill="#fff">
                        </path>
                        <path d="m253.74,114.25c0-.63.51-1.15,1.15-1.15s1.15.51,1.15,1.15-.51,1.15-1.15,1.15-1.15-.51-1.15-1.15Z" fill="#fff">
                        </path>
                    </g>
                    <g>
                        <rect x="379.26" y="112.66" width="8.88" height="3.86" fill="none" stroke-miterlimit="10" stroke="#fff" stroke-width=".5px">
                        </rect>
                        <rect x="379.8" y="113.16" width="6.03" height="2.86" fill="#fff">
                        </rect>
                        <rect x="388.39" y="113.43" width=".83" height="2.32" fill="#fff">
                        </rect>
                    </g>
                </g>
                <g>
                    <g>
                        <rect x="236.19" y="249.74" width="40.6" height="1.49" fill="#a6a6a6">
                        </rect>
                        <rect x="236.19" y="252.43" width="32.15" height=".74" fill="#ebebeb">
                        </rect>
                        <path d="m236.19,255.92c39.14-.12,117.9-.12,157.02,0-39.14.12-117.9.12-157.02,0h0Z" fill="#ebebeb">
                        </path>
                        <g>
                            <g id="xsrjP0">
                                <g>
                                    <path d="m351.83,252.96c-.07-.04-.13-.11-.23-.1-.04,0-.03-.03-.03-.05,0-.36,0-.72,0-1.07,0-.03,0-.05.03-.06.27-.14.39-.41.56-.64.18-.25.24-.52.2-.81-.01-.08.03-.12.1-.13.09-.02.17,0,.2.06.07.15.14.3.16.47.02.14-.03.27-.05.4-.01.1-.03.2-.05.3.02.02.05,0,.08,0,.3,0,.6,0,.91,0,.13,0,.19.04.21.12.02.11-.03.21-.13.26-.02.01-.06,0-.07.04,0,.04.04.03.06.05.11.07.09.23-.04.32-.03.02-.09.01-.09.06,0,.04.05.03.08.06.09.09.05.25-.09.32-.02,0-.04.01-.05.02-.01.01-.03.02,0,.04.13.09.13.22,0,.32-.01,0-.03.02-.04.03-.05.04-.1.04-.16.04-.47,0-.95,0-1.42,0-.04,0-.09,0-.12-.03Z" fill="#a6a6a6" fill-rule="evenodd">
                                    </path>
                                    <path d="m350.48,252.34c0-.23,0-.45,0-.68,0-.05,0-.07.06-.07.28,0,.55,0,.83,0,.05,0,.06.02.06.07,0,.46,0,.92,0,1.37,0,.06-.02.07-.07.07-.27,0-.54,0-.81,0-.07,0-.08-.02-.08-.08,0-.23,0-.45,0-.68Z" fill="#a6a6a6" fill-rule="evenodd">
                                    </path>
                                </g>
                            </g>
                            <g id="xsrjP0-2">
                                <g>
                                    <path d="m363.43,250.58c.07.04.13.11.23.1.04,0,.03.03.03.05,0,.36,0,.72,0,1.07,0,.03,0,.05-.03.06-.27.14-.39.41-.56.64-.18.25-.24.52-.2.81.01.08-.03.12-.1.13-.09.02-.17,0-.2-.06-.07-.15-.14-.3-.16-.47-.02-.14.03-.27.05-.4.01-.1.04-.2.05-.3-.02-.02-.05,0-.08,0-.3,0-.6,0-.91,0-.13,0-.19-.04-.21-.12-.02-.11.03-.21.13-.26.02-.01.06,0,.07-.04,0-.04-.04-.03-.06-.05-.11-.08-.09-.23.04-.32.03-.02.09-.01.09-.06,0-.04-.05-.04-.08-.06-.09-.09-.04-.25.09-.32.02,0,.04,0,.05-.02.01-.01.03-.02,0-.04-.13-.09-.13-.22,0-.32.01,0,.03-.02.04-.03.05-.04.1-.03.16-.03.47,0,.95,0,1.42,0,.04,0,.09,0,.12.03Z" fill="#a6a6a6" fill-rule="evenodd">
                                    </path>
                                    <path d="m364.78,251.21c0,.23,0,.45,0,.68,0,.05,0,.07-.06.07-.28,0-.55,0-.83,0-.05,0-.06-.02-.06-.07,0-.46,0-.92,0-1.37,0-.06.02-.07.07-.07.27,0,.54,0,.81,0,.07,0,.08.02.08.08,0,.23,0,.45,0,.68Z" fill="#a6a6a6" fill-rule="evenodd">
                                    </path>
                                </g>
                            </g>
                            <g>
                                <path d="m356.24,252.59c0,.07-.05.12-.12.12h-.77s-.07-.01-.09-.04c-.05-.05-.04-.12,0-.17l.64-.58c.06-.06.09-.13.09-.21,0-.07-.02-.13-.07-.19-.06-.06-.13-.09-.21-.09-.07,0-.13.02-.19.07l-.07.06s-.12.04-.17,0c-.04-.05-.04-.12,0-.17l.07-.06c.1-.09.22-.13.35-.13.14,0,.28.06.38.17.09.1.13.22.13.35,0,.14-.06.28-.17.38l-.41.37h.46c.07,0,.12.05.12.12Z" fill="#a6a6a6">
                                </path>
                                <path d="m356.62,252.59v-1.27c0-.06.05-.12.12-.12s.12.06.12.12v.62l.7-.7s.12-.05.17,0c.05.05.05.12,0,.17l-.48.47.48.63s.03.13-.02.17c-.02.02-.05.03-.08.03-.03,0-.06-.01-.09-.04l-.47-.61-.23.23v.31c0,.06-.05.12-.12.12s-.12-.05-.12-.12Z" fill="#a6a6a6">
                                </path>
                            </g>
                            <g>
                                <path d="m367.24,252.59c0,.07-.05.12-.12.12h-.77s-.07-.01-.09-.04c-.05-.05-.04-.12,0-.17l.64-.58c.06-.06.09-.13.09-.21,0-.07-.02-.13-.07-.19-.06-.06-.13-.09-.21-.09-.07,0-.13.02-.19.07l-.07.06s-.12.04-.17,0c-.04-.05-.04-.12,0-.17l.07-.06c.1-.09.22-.13.35-.13.14,0,.28.06.38.17.09.1.13.22.13.35,0,.14-.06.28-.17.38l-.41.37h.46c.07,0,.12.05.12.12Z" fill="#a6a6a6">
                                </path>
                                <path d="m368.36,251.79c.11.1.16.24.16.38s-.05.27-.16.38-.24.16-.38.16-.27-.05-.38-.16c-.05-.05-.05-.13,0-.17.05-.05.13-.05.17,0,.06.06.13.08.21.08s.15-.03.21-.08c.06-.06.09-.13.09-.21s-.03-.15-.09-.21c-.06-.06-.13-.08-.21-.09-.03,0-.07-.01-.09-.04t0,0s-.05-.12,0-.17l.22-.22h-.35c-.07,0-.12-.05-.12-.12s.05-.12.12-.12h.64c.07,0,.12.05.12.12,0,.02,0,.04-.01.06,0,.01-.01.02-.02.03l-.27.28c.06.03.11.06.15.11Z" fill="#a6a6a6">
                                </path>
                                <path d="m369.84,252.59c0,.07-.05.12-.12.12h-.77s-.07-.01-.09-.04c-.05-.05-.04-.12,0-.17l.64-.58c.06-.06.09-.13.09-.21,0-.07-.02-.13-.07-.19-.06-.06-.13-.09-.21-.09-.07,0-.13.02-.19.07l-.07.06s-.12.04-.17,0c-.04-.05-.04-.12,0-.17l.07-.06c.1-.09.22-.13.35-.13.14,0,.28.06.38.17.09.1.13.22.13.35,0,.14-.06.28-.17.38l-.41.37h.46c.07,0,.12.05.12.12Z" fill="#a6a6a6">
                                </path>
                            </g>
                            <g>
                                <path d="m379.52,252.33s.11-.05.16-.02c.1.08.26.17.41.17.11,0,.21-.03.27-.08.06-.05.09-.1.09-.16,0-.03,0-.05-.02-.07-.01-.02-.03-.04-.07-.06-.06-.04-.17-.08-.3-.1h0c-.1-.02-.2-.05-.28-.08-.08-.04-.15-.09-.2-.17-.03-.05-.05-.11-.05-.18,0-.13.07-.24.17-.32.1-.07.23-.11.37-.11.21,0,.36.1.47.17.05.03.06.1.03.15-.03.05-.1.07-.15.03-.11-.07-.22-.14-.35-.14-.1,0-.18.03-.24.07-.06.04-.08.09-.08.14,0,.03,0,.04.02.06.01.02.03.04.06.06.06.04.15.07.27.1h0c.11.02.21.05.3.09.09.04.17.1.22.18.03.05.05.12.05.18,0,.14-.08.26-.19.33-.11.08-.25.12-.4.12-.23,0-.43-.12-.55-.22-.05-.04-.05-.11-.02-.16Z" fill="#a6a6a6">
                                </path>
                                <path d="m381.01,252.59v-1.28c0-.07.05-.12.12-.12s.12.05.12.12v.52h.56v-.52c0-.07.05-.12.12-.12s.12.05.12.12v1.28c0,.07-.05.12-.12.12s-.12-.05-.12-.12v-.52h-.56v.52c0,.07-.05.12-.12.12s-.12-.05-.12-.12Z" fill="#a6a6a6">
                                </path>
                                <path d="m383.18,252.35h-.53l-.11.28s-.06.08-.11.08c-.02,0-.03,0-.04,0-.06-.02-.09-.09-.07-.16l.48-1.27s.07-.08.11-.08c.05,0,.1.03.11.08l.48,1.27c.02.06,0,.13-.07.16-.01,0-.03,0-.04,0-.05,0-.09-.03-.11-.08l-.11-.28Zm-.09-.24l-.17-.47-.18.47h.35Z" fill="#a6a6a6">
                                </path>
                                <path d="m384.8,252.53c.02.06-.01.13-.08.15,0,0-.03,0-.05,0h0s-.05,0-.08-.02c-.03-.02-.05-.05-.07-.08-.03-.06-.05-.14-.05-.26,0-.04-.01-.07-.03-.09-.01-.02-.04-.05-.06-.06-.05-.03-.1-.05-.12-.05h-.26v.47c0,.06-.05.12-.12.12s-.12-.05-.12-.12v-1.28c0-.07.05-.12.12-.12h.39c.26,0,.46.21.46.46,0,.14-.06.27-.17.35.03.02.05.05.08.08.04.06.07.14.07.23,0,.06,0,.11,0,.13.03.01.06.04.08.07Zm-.3-.87c0-.12-.1-.22-.22-.22h-.27v.45h.27c.12,0,.22-.1.22-.22Z" fill="#a6a6a6">
                                </path>
                                <path d="m385.15,252.59v-1.28c0-.07.05-.12.12-.12h.71c.06,0,.12.05.12.12s-.06.12-.12.12h-.59v.4h.5c.06,0,.12.06.12.12,0,.07-.05.12-.12.12h-.5v.4h.59c.06,0,.12.05.12.12s-.06.12-.12.12h-.7s0,0,0,0h0c-.07,0-.12-.05-.12-.12Z" fill="#a6a6a6">
                                </path>
                            </g>
                            <g>
                                <path d="m375.91,253c0-.4.07-.83.27-1.21.19-.39.48-.73.82-1.05l.51.85c-.32.09-.61.27-.85.52-.24.25-.49.55-.64.9l-.1-.02Z" fill="#a6a6a6">
                                </path>
                                <polygon points="377.34 252.21 378.56 250.75 376.69 250.43 377.34 252.21" fill="#a6a6a6">
                                </polygon>
                            </g>
                            <g>
                                <path d="m391.66,252.01c0,.1-.08.18-.18.18s-.18-.08-.18-.18.08-.18.18-.18.18.08.18.18Z" fill="#a6a6a6" fill-rule="evenodd">
                                </path>
                                <path d="m392.44,252.01c0,.1-.08.18-.18.18s-.18-.08-.18-.18.08-.18.18-.18.18.08.18.18Z" fill="#a6a6a6" fill-rule="evenodd">
                                </path>
                                <path d="m393.22,252.01c0,.1-.08.18-.18.18s-.18-.08-.18-.18.08-.18.18-.18.18.08.18.18Z" fill="#a6a6a6" fill-rule="evenodd">
                                </path>
                            </g>
                        </g>
                    </g>
                    <g>
                        <g>
                            <path d="m244.13,271.89c-.46.28-.96.5-1.51.63-1.42.35-2.85.08-4.01-.64-1.13-.7-2-1.82-2.34-3.22-.69-2.82,1.04-5.66,3.85-6.34,2.81-.69,5.65,1.04,6.34,3.85.55,2.27-.46,4.55-2.34,5.71Z" fill="#dbdbdb">
                            </path>
                            <g>
                                <path d="m242.97,266.83c0,.88-.71,1.6-1.6,1.6s-1.6-.71-1.6-1.6.71-1.6,1.6-1.6,1.6.72,1.6,1.6Z" fill="#fff">
                                </path>
                                <path d="m244.13,271.23v.66c-.46.28-.96.5-1.51.63-1.42.35-2.85.08-4.01-.64v-.66c0-1.52,1.23-2.76,2.76-2.76,1.52,0,2.76,1.24,2.76,2.76Z" fill="#fff">
                                </path>
                            </g>
                        </g>
                        <rect x="250.98" y="263.15" width="23.02" height="1.49" fill="#a6a6a6">
                        </rect>
                        <rect x="250.98" y="265.83" width="18.23" height=".74" fill="#ebebeb">
                        </rect>
                        <g>
                            <rect x="367.82" y="263.89" width="25.39" height="6.89" fill="#dbdbdb">
                            </rect>
                            <g>
                                <path d="m370.58,268.01c.07-.08.18-.09.26-.03.16.13.44.28.69.28.18,0,.34-.05.45-.13.11-.08.16-.17.16-.26,0-.05-.01-.08-.03-.12s-.05-.07-.11-.11c-.1-.07-.28-.13-.5-.17h0c-.17-.03-.33-.08-.47-.14-.14-.07-.26-.16-.34-.28-.05-.09-.08-.19-.08-.3,0-.22.12-.41.29-.53.17-.12.39-.19.63-.19.35,0,.61.17.79.29.08.06.11.17.05.26-.05.09-.17.11-.26.05-.18-.12-.36-.23-.58-.23-.16,0-.31.05-.41.12-.1.07-.14.15-.14.23,0,.04,0,.07.03.1.02.03.05.06.1.09.09.07.26.12.45.16h0c.18.04.36.08.5.15.15.07.28.17.36.3.05.09.09.2.09.31,0,.23-.13.43-.31.56-.18.13-.41.21-.67.21-.39,0-.72-.2-.93-.36-.08-.07-.09-.18-.03-.26Z" fill="#fff">
                                </path>
                                <path d="m374.12,268.64c-.58,0-1.05-.47-1.05-1.05v-1.29c0-.11.09-.2.2-.2s.2.09.2.2v1.29c0,.36.29.64.65.64s.64-.29.64-.64v-1.29c0-.11.09-.2.2-.2s.2.09.2.2v1.29c0,.58-.47,1.05-1.05,1.05Z" fill="#fff">
                                </path>
                                <path d="m376.02,268.44v-2.14c0-.11.09-.2.2-.2h.51c.38,0,.69.31.69.69,0,.16-.05.3-.14.41.22.14.37.38.37.66,0,.43-.35.78-.78.78h-.64s0,0,0,0c0,0,0,0-.01,0-.11,0-.2-.09-.2-.2Zm.4-1.35h.31c.16,0,.29-.13.29-.29s-.13-.29-.29-.29h-.31v.58Zm0,1.15h.45c.21,0,.37-.17.37-.38s-.17-.37-.37-.37h-.45v.75Z" fill="#fff">
                                </path>
                                <path d="m378.09,268.01c.07-.08.19-.09.26-.03.16.13.44.28.69.28.18,0,.34-.05.45-.13.11-.08.16-.17.16-.26,0-.05-.01-.08-.03-.12-.02-.04-.05-.07-.11-.11-.1-.07-.28-.13-.5-.17h0c-.17-.03-.33-.08-.47-.14-.14-.07-.26-.16-.34-.28-.05-.09-.08-.19-.08-.3,0-.22.12-.41.29-.53.17-.12.39-.19.63-.19.35,0,.61.17.79.29.08.06.11.17.05.26-.05.09-.17.11-.26.05-.18-.12-.36-.23-.58-.23-.16,0-.31.05-.41.12-.1.07-.14.15-.14.23,0,.04,0,.07.03.1.02.03.05.06.1.09.09.07.26.12.45.16h0c.18.04.36.08.5.15.15.07.28.17.36.3.05.09.09.2.09.31,0,.23-.13.43-.31.56-.18.13-.41.21-.67.21-.39,0-.72-.2-.93-.36-.08-.07-.09-.18-.03-.26Z" fill="#fff">
                                </path>
                                <path d="m380.48,267.33c0-.72.61-1.3,1.33-1.3.32,0,.61.11.84.28.09.07.1.2.04.29-.07.09-.21.11-.29.04-.16-.13-.36-.2-.58-.2-.25,0-.48.1-.65.26-.16.17-.26.38-.26.63s.1.47.26.63c.17.16.4.26.65.26.22,0,.42-.07.58-.2.08-.06.22-.05.29.04.07.09.05.22-.04.29-.23.18-.52.28-.84.28-.72,0-1.33-.58-1.33-1.3Z" fill="#fff">
                                </path>
                                <path d="m385.06,268.34c.04.11-.02.22-.13.25-.01,0-.04.01-.08.01h0s-.09,0-.14-.04c-.05-.03-.09-.08-.12-.13-.05-.11-.08-.24-.08-.43,0-.07-.02-.12-.04-.16-.02-.04-.07-.08-.11-.11-.08-.05-.17-.08-.2-.09h-.43v.79c0,.11-.09.2-.2.2s-.2-.09-.2-.2v-2.14c0-.11.09-.2.2-.2h.65c.43,0,.78.35.78.78,0,.24-.11.45-.28.59.05.04.09.08.13.13.07.11.12.24.12.39,0,.11,0,.18.01.21.06.02.11.06.13.12Zm-.51-1.46c0-.21-.17-.38-.37-.38h-.45v.75h.45c.21,0,.37-.17.37-.37Z" fill="#fff">
                                </path>
                                <path d="m385.67,266.3c0-.11.09-.2.2-.2s.2.09.2.2v2.14c0,.11-.09.2-.2.2s-.2-.09-.2-.2v-2.14Z" fill="#fff">
                                </path>
                                <path d="m386.75,268.44v-2.14c0-.11.09-.2.2-.2h.51c.38,0,.69.31.69.69,0,.16-.05.3-.14.41.22.14.37.38.37.66,0,.43-.35.78-.78.78h-.64s0,0,0,0c0,0,0,0-.01,0-.11,0-.2-.09-.2-.2Zm.4-1.35h.31c.16,0,.29-.13.29-.29s-.13-.29-.29-.29h-.31v.58Zm0,1.15h.45c.21,0,.37-.17.37-.38s-.17-.37-.37-.37h-.45v.75Z" fill="#fff">
                                </path>
                                <path d="m388.9,268.44v-2.14c0-.11.09-.2.2-.2h1.18c.11,0,.2.09.2.2s-.09.2-.2.2h-.98v.66h.84c.11,0,.2.09.2.2,0,.11-.09.2-.2.2h-.84v.67h.98c.11,0,.2.09.2.2s-.09.2-.2.2h-1.17s0,0,0,0h0c-.11,0-.2-.09-.2-.2Z" fill="#fff">
                                </path>
                            </g>
                        </g>
                    </g>
                </g>
                <g>
                    <g>
                        <rect x="237.72" y="278.2" width="48.36" height="31.11" fill="#ebebeb">
                        </rect>
                        <polygon points="257.04 298.48 257.04 289.03 266.75 293.75 257.04 298.48" fill="#fff">
                        </polygon>
                    </g>
                    <rect x="291.28" y="278.2" width="37.9" height="2.37" fill="#a6a6a6">
                    </rect>
                    <path d="m291.28,284.01c10.84-.68,21.78-.68,32.62,0-10.84.68-21.78.68-32.62,0h0Z" fill="#ebebeb">
                    </path>
                    <path d="m291.28,286.56c12.08-.68,24.27-.68,36.35,0-12.08.68-24.27.68-36.35,0h0Z" fill="#ebebeb">
                    </path>
                    <path d="m291.28,289.11c8.15-.68,16.31-.69,24.46,0-8.15.69-16.31.68-24.46,0h0Z" fill="#ebebeb">
                    </path>
                    <path d="m291.28,291.66c8.15-.68,16.31-.69,24.46,0-8.15.69-16.31.68-24.46,0h0Z" fill="#ebebeb">
                    </path>
                </g>
                <g>
                    <g>
                        <rect x="237.72" y="318.61" width="48.36" height="31.11" fill="#ebebeb">
                        </rect>
                        <polygon points="257.04 338.89 257.04 329.44 266.75 334.17 257.04 338.89" fill="#fff">
                        </polygon>
                    </g>
                    <rect x="291.28" y="318.61" width="37.9" height="2.37" fill="#a6a6a6">
                    </rect>
                    <path d="m291.28,324.43c10.84-.68,21.78-.68,32.62,0-10.84.68-21.78.68-32.62,0h0Z" fill="#ebebeb">
                    </path>
                    <path d="m291.28,326.98c12.08-.68,24.27-.68,36.35,0-12.08.68-24.27.68-36.35,0h0Z" fill="#ebebeb">
                    </path>
                    <path d="m291.28,329.53c8.15-.68,16.31-.69,24.46,0-8.15.69-16.31.68-24.46,0h0Z" fill="#ebebeb">
                    </path>
                    <path d="m291.28,332.08c8.15-.68,16.31-.69,24.46,0-8.15.69-16.31.68-24.46,0h0Z" fill="#ebebeb">
                    </path>
                </g>
                <g>
                    <g>
                        <rect x="237.72" y="359.03" width="48.36" height="31.11" fill="#ebebeb">
                        </rect>
                        <polygon points="257.04 379.31 257.04 369.86 266.75 374.58 257.04 379.31" fill="#fff">
                        </polygon>
                    </g>
                    <rect x="291.28" y="359.03" width="37.9" height="2.37" fill="#a6a6a6">
                    </rect>
                    <path d="m291.28,364.84c10.84-.68,21.78-.68,32.62,0-10.84.68-21.78.68-32.62,0h0Z" fill="#ebebeb">
                    </path>
                    <path d="m291.28,367.39c12.08-.68,24.27-.68,36.35,0-12.08.68-24.27.68-36.35,0h0Z" fill="#ebebeb">
                    </path>
                    <path d="m291.28,369.94c8.15-.68,16.31-.69,24.46,0-8.15.69-16.31.68-24.46,0h0Z" fill="#ebebeb">
                    </path>
                    <path d="m291.28,372.49c8.15-.68,16.31-.69,24.46,0-8.15.69-16.31.68-24.46,0h0Z" fill="#ebebeb">
                    </path>
                </g>
                <g>
                    <g>
                        <rect x="237.72" y="399.44" width="48.36" height="31.11" fill="#ebebeb">
                        </rect>
                        <polygon points="257.04 419.72 257.04 410.27 266.75 415 257.04 419.72" fill="#fff">
                        </polygon>
                    </g>
                    <rect x="291.28" y="399.44" width="37.9" height="2.37" fill="#a6a6a6">
                    </rect>
                    <path d="m291.28,405.26c10.84-.68,21.78-.68,32.62,0-10.84.68-21.78.68-32.62,0h0Z" fill="#ebebeb">
                    </path>
                    <path d="m291.28,407.81c12.08-.68,24.27-.68,36.35,0-12.08.68-24.27.68-36.35,0h0Z" fill="#ebebeb">
                    </path>
                    <path d="m291.28,410.36c8.15-.68,16.31-.69,24.46,0-8.15.69-16.31.68-24.46,0h0Z" fill="#ebebeb">
                    </path>
                    <path d="m291.28,412.91c8.15-.68,16.31-.69,24.46,0-8.15.69-16.31.68-24.46,0h0Z" fill="#ebebeb">
                    </path>
                </g>
            </g>
            <animateTransform id="ani02" attributeName="transform" type="translate" begin="-0.00001" dur="0.9999034196221891" keyTimes="0; 1" values="0, 380; 0, 0" fill="freeze" additive="sum" calcMode="spline" keySplines="0.165 0.84 0.44 1">
            </animateTransform>
        </g>
        <g transform-origin="center" style="transform-box: fill-box;">
            <g>
                <line x1="33.89" y1="78.5" x2="33.89" stroke="#c7c7c7" fill="none" stroke-miterlimit="10" id="line-2gctCQcpr5QzsmRQwtwioZ">
                </line>
                <g>
                    <polygon points="67.77 111.16 65.04 117.15 2.72 117.15 0 111.16 26.54 92.79 41.23 92.79 67.77 111.16" fill="#ebebeb">
                    </polygon>
                    <polygon points="43.08 75.1 41.23 92.79 26.54 92.79 24.69 75.1 43.08 75.1" fill="#dbdbdb">
                    </polygon>
                    <polygon points="67.77 111.16 65.04 117.15 2.72 117.15 0 111.16 67.77 111.16" fill="#dbdbdb">
                    </polygon>
                </g>
            </g>
            <g>
                <line x1="106.64" y1="59.17" x2="106.64" stroke="#c7c7c7" fill="none" stroke-miterlimit="10" id="line-ks1iQyaECrn5tc6YGvPXuy">
                </line>
                <g>
                    <polygon points="140.52 91.83 137.79 97.82 75.47 97.82 72.75 91.83 99.29 73.46 113.99 73.46 140.52 91.83" fill="#ebebeb">
                    </polygon>
                    <polygon points="115.83 55.77 113.99 73.46 99.29 73.46 97.45 55.77 115.83 55.77" fill="#dbdbdb">
                    </polygon>
                    <polygon points="140.52 91.83 137.79 97.82 75.47 97.82 72.75 91.83 140.52 91.83" fill="#dbdbdb">
                    </polygon>
                </g>
            </g>
            <animateTransform id="ani03" attributeName="transform" type="translate" begin="-0.00001" dur="2.00002" keyTimes="0; 1" values="0, -120; 0, 0" fill="freeze" additive="sum" calcMode="spline" keySplines="0.075 0.82 0.165 1">
            </animateTransform>
        </g>
    </g>
    <g id="Floor">
        <polygon points=".5 461.39 51.89 461.15 103.27 461.06 206.04 460.89 308.82 461.06 360.2 461.15 411.59 461.39 360.2 461.64 308.82 461.73 206.04 461.89 103.27 461.72 51.89 461.64 .5 461.39" fill="#263238">
        </polygon>
    </g>
    <g id="Device" transform-origin="center" style="transform-box: fill-box;">
        <g>
            <path d="m.5,284.39v161.2c0,9,7.43,16.31,16.61,16.31h331.84c9.16,0,16.61-7.3,16.61-16.31v-161.2c0-9.01-7.45-16.32-16.61-16.32H17.11c-9.18,0-16.61,7.31-16.61,16.32Zm338.2-6.13c8.73,0,15.8,6.54,15.8,14.61v144.21c0,8.09-7.07,14.63-15.8,14.63H29.69c-17.79,0-18.66-6.54-18.66-14.63v-28.88c0-1.68,1.91-3.05,4.27-3.05h1.02c5.54,0,5.56-3.03,5.56-6.76v-66.81c0-3.76-.02-6.76-5.56-6.76h-1.02c-2.36,0-4.27-1.35-4.27-3.06v-28.89c0-8.07,2.36-14.61,18.66-14.61h309.01Z" fill="#263238">
            </path>
            <path d="m14.96,355.87v18.22c0,.62-.5,1.13-1.13,1.13h0c-.62,0-1.13-.5-1.13-1.13v-18.22c0-.62.5-1.13,1.13-1.13h0c.62,0,1.13.5,1.13,1.13Z" fill="#fff">
            </path>
            <g>
                <path d="m29.69,278.26h309.01c8.73,0,15.8,6.54,15.8,14.61v144.21c0,8.09-7.07,14.63-15.8,14.63H29.69c-17.79,0-18.66-6.54-18.66-14.63v-28.88c0-1.68,1.91-3.05,4.27-3.05h1.02c5.54,0,5.56-3.03,5.56-6.76v-66.81c0-3.76-.02-6.76-5.56-6.76h-1.02c-2.36,0-4.27-1.35-4.27-3.06v-28.89c0-8.07,2.36-14.61,18.66-14.61Z" fill="#fff">
                </path>
                <g>
                    <g>
                        <path d="m354.49,292.87v144.21c0,8.09-7.07,14.63-15.8,14.63H29.68c-16.12,0-18.35-5.37-18.62-12.4v-31.51c.27-1.49,2.06-2.65,4.23-2.65h1.02c5.54,0,5.56-3.04,5.56-6.76v-66.81c0-3.76-.02-6.76-5.56-6.76h-1.02c-2.17,0-3.96-1.14-4.23-2.65v-30.97c.36-7.29,3.47-12.94,18.62-12.94h309.01c8.73,0,15.8,6.54,15.8,14.61Z" fill="#ffc727">
                        </path>
                        <path d="m354.49,292.87v144.21c0,8.09-7.07,14.63-15.8,14.63H29.68c-16.12,0-18.35-5.37-18.62-12.4v-31.51c.27-1.49,2.06-2.65,4.23-2.65h1.02c5.54,0,5.56-3.04,5.56-6.76v-66.81c0-3.76-.02-6.76-5.56-6.76h-1.02c-2.17,0-3.96-1.14-4.23-2.65v-30.97c.36-7.29,3.47-12.94,18.62-12.94h309.01c8.73,0,15.8,6.54,15.8,14.61Z" fill="#fff" opacity=".9">
                        </path>
                    </g>
                    <g>
                        <path d="m51.27,332.76c-2.05,10.82,7.26,20.13,18.08,18.08,6.04-1.15,10.92-6.02,12.06-12.06,2.05-10.82-7.26-20.13-18.08-18.08-6.04,1.15-10.92,6.02-12.06,12.06Z" fill="#ffc727" opacity=".2">
                        </path>
                        <polygon points="210.62 430.56 354.49 430.56 282.56 359.53 210.62 430.56" fill="#ffc727" opacity=".2">
                        </polygon>
                        <g>
                            <polygon points="155.42 430.56 274.2 430.56 214.81 384.3 155.42 430.56" fill="#ffc727">
                            </polygon>
                            <polygon points="155.42 430.56 274.2 430.56 214.81 384.3 155.42 430.56" fill="#fff" opacity=".5">
                            </polygon>
                        </g>
                        <path d="m354.49,430.56v6.52c0,8.09-7.07,14.63-15.8,14.63H29.68c-16.12,0-18.35-5.37-18.62-12.4v-8.75h343.43Z" fill="#dbdbdb">
                        </path>
                    </g>
                    <g>
                        <g>
                            <path d="m315.12,439.9H46.62c-.67,0-1.21.54-1.21,1.21s.54,1.21,1.21,1.21h268.5c.67,0,1.21-.54,1.21-1.21s-.54-1.21-1.21-1.21Z" fill="#263238">
                            </path>
                            <path d="m46.62,439.9c-.67,0-1.21.54-1.21,1.21s.54,1.21,1.21,1.21h209.01v-2.41H46.62Z" fill="#ffc727">
                            </path>
                            <path d="m253.22,441.11c0-1.33,1.08-2.41,2.41-2.41s2.41,1.08,2.41,2.41-1.08,2.41-2.41,2.41-2.41-1.08-2.41-2.41Z" fill="#fff">
                            </path>
                        </g>
                        <g>
                            <polygon points="334.98 437.21 334.98 438.32 334.98 440.72 336.09 440.72 336.09 438.32 338.49 438.32 338.49 437.21 336.09 437.21 334.98 437.21" fill="#263238">
                            </polygon>
                            <polygon points="342.2 437.21 339.8 437.21 339.8 438.32 342.2 438.32 342.2 440.72 343.31 440.72 343.31 438.32 343.31 437.21 342.2 437.21" fill="#263238">
                            </polygon>
                            <polygon points="342.2 444.21 339.8 444.21 339.8 445.32 342.2 445.32 343.31 445.32 343.31 444.21 343.31 441.81 342.2 441.81 342.2 444.21" fill="#263238">
                            </polygon>
                            <polygon points="336.09 441.81 334.98 441.81 334.98 444.21 334.98 445.32 336.09 445.32 338.49 445.32 338.49 444.21 336.09 444.21 336.09 441.81" fill="#263238">
                            </polygon>
                        </g>
                        <polygon points="22.25 437.59 22.25 444.62 27.91 441.11 22.25 437.59" fill="#263238">
                        </polygon>
                        <g>
                            <path d="m32.45,440.41c-.14-.21-.36-.37-.61-.37-.27,0-.48.16-.62.37-.15.21-.23.49-.23.8s.08.58.23.8c.14.21.35.37.62.37.25,0,.47-.16.61-.37.15-.22.23-.5.23-.8s-.08-.59-.23-.8Zm-.3,1.39c-.1.14-.21.21-.31.21-.11,0-.22-.07-.32-.21-.09-.14-.16-.35-.16-.59s.07-.45.16-.6c.1-.14.21-.2.32-.2.1,0,.21.06.31.2.09.15.16.36.16.6s-.07.45-.16.59Z" fill="#263238">
                            </path>
                            <path d="m34.83,440.41c-.14-.21-.36-.37-.61-.37-.27,0-.48.16-.63.37-.14.21-.22.49-.22.8s.08.58.22.8c.15.21.36.37.63.37.25,0,.47-.16.61-.37.15-.22.23-.5.23-.8s-.08-.59-.23-.8Zm-.3,1.39c-.1.14-.21.21-.31.21-.11,0-.22-.07-.32-.21-.09-.14-.16-.35-.16-.59s.07-.45.16-.6c.1-.14.21-.2.32-.2.1,0,.21.06.31.2.09.15.16.36.16.6s-.07.45-.16.59Z" fill="#263238">
                            </path>
                            <path d="m36.07,441.9c-.14,0-.25.12-.25.25,0,.14.11.25.25.25.13,0,.25-.11.25-.25,0-.13-.12-.25-.25-.25Zm0-1.33c-.14,0-.25.12-.25.25,0,.14.11.25.25.25.13,0,.25-.11.25-.25,0-.13-.12-.25-.25-.25Z" fill="#263238">
                            </path>
                            <path d="m38.02,440.41c-.15-.21-.37-.37-.62-.37-.27,0-.48.16-.62.37-.15.21-.23.49-.23.8s.08.58.23.8c.14.21.35.37.62.37.25,0,.47-.16.62-.37.14-.22.22-.5.22-.8s-.08-.59-.22-.8Zm-.31,1.39c-.1.14-.21.21-.31.21-.11,0-.22-.07-.32-.21-.09-.14-.16-.35-.16-.59s.07-.45.16-.6c.1-.14.21-.2.32-.2.1,0,.21.06.31.2.09.15.16.36.16.6s-.07.45-.16.59Z" fill="#263238">
                            </path>
                            <path d="m40.39,440.41c-.14-.21-.36-.37-.61-.37-.27,0-.49.16-.63.37-.14.21-.22.49-.22.8s.08.58.22.8c.14.21.36.37.63.37.25,0,.47-.16.61-.37.15-.22.23-.5.23-.8s-.08-.59-.23-.8Zm-.3,1.39c-.1.14-.21.21-.31.21-.11,0-.22-.07-.32-.21s-.16-.35-.16-.59.06-.45.16-.6c.1-.14.21-.2.32-.2.1,0,.21.06.31.2.09.15.16.36.16.6s-.07.45-.16.59Z" fill="#263238">
                            </path>
                        </g>
                        <g>
                            <path d="m322.96,440.41c-.14-.21-.36-.37-.61-.37-.27,0-.48.16-.63.37-.14.21-.22.49-.22.8s.08.58.22.8c.15.21.36.37.63.37.25,0,.47-.16.61-.37.15-.22.23-.5.23-.8s-.08-.59-.23-.8Zm-.3,1.39c-.1.14-.21.21-.31.21-.11,0-.22-.07-.32-.21-.09-.14-.16-.35-.16-.59s.07-.45.16-.6c.1-.14.21-.2.32-.2.1,0,.21.06.31.2.09.15.16.36.16.6s-.07.45-.16.59Z" fill="#263238">
                            </path>
                            <path d="m324.52,440.72c-.07,0-.15.01-.22.03l.04-.33h.82c.11,0,.19-.09.19-.19,0-.11-.08-.19-.19-.19h-.98s-.06,0-.09.02c0,0-.01,0-.01.01h0s-.08.08-.09.14l-.1.86v.06s0,0,0,.01v.02s0,.01,0,.02h0s.02.04.04.05c.07.07.19.07.26,0,.09-.09.21-.13.32-.13.12,0,.23.04.32.13.09.09.13.2.13.32,0,.11-.04.23-.13.32-.09.09-.2.13-.32.13s-.23-.04-.32-.13c-.07-.08-.19-.08-.26,0-.08.07-.08.19,0,.26.15.17.37.25.58.25s.43-.08.59-.25c.16-.16.24-.37.24-.58s-.08-.43-.24-.59-.38-.24-.59-.24Z" fill="#263238">
                            </path>
                            <path d="m326.22,441.9c-.14,0-.25.12-.25.25,0,.14.11.25.25.25s.25-.11.25-.25c0-.13-.11-.25-.25-.25Zm0-1.33c-.14,0-.25.12-.25.25,0,.14.11.25.25.25s.25-.11.25-.25c0-.13-.11-.25-.25-.25Z" fill="#263238">
                            </path>
                            <path d="m327.74,440.79l.42-.43s.02-.03.03-.05.02-.05.02-.09c0-.1-.08-.18-.19-.18h-.98c-.1,0-.19.08-.19.18,0,.11.09.19.19.19h.54l-.34.35s-.05.08-.05.13.02.1.06.14c.03.04.08.07.14.06.11.01.23.05.31.14.09.08.14.2.14.31,0,.12-.05.23-.14.32-.09.09-.2.13-.32.13-.11,0-.23-.04-.31-.13-.08-.07-.2-.07-.27,0-.07.08-.07.2,0,.27.16.16.37.24.58.24s.43-.08.59-.24c.16-.16.24-.38.24-.59s-.08-.42-.24-.58c-.07-.07-.15-.12-.23-.17Z" fill="#263238">
                            </path>
                            <path d="m329.38,440.72c-.07,0-.15.01-.23.03l.04-.33h.83c.1,0,.19-.09.19-.19,0-.11-.09-.19-.19-.19h-.99s-.06,0-.09.02h0s0,.01,0,.01c-.04.03-.07.08-.08.14l-.1.86s0,.04,0,.06h0v.03s0,.01,0,.02t0,.01s.02.03.03.04c.07.07.2.07.27,0,.09-.09.2-.13.32-.13s.23.04.32.13c.09.09.13.2.13.32,0,.11-.05.23-.13.32-.09.09-.21.13-.32.13-.12,0-.23-.04-.32-.13-.07-.08-.2-.08-.27,0-.08.07-.08.19,0,.26.16.17.37.25.58.25h0c.21,0,.42-.08.58-.25.16-.16.25-.37.25-.58s-.08-.43-.25-.59c-.16-.16-.37-.24-.58-.24Z" fill="#263238">
                            </path>
                        </g>
                    </g>
                    <g>
                        <g>
                            <rect x="331.9" y="286.96" width="7.8" height="1.54" fill="#a6a6a6">
                            </rect>
                            <rect x="331.9" y="290.07" width="7.8" height="1.54" fill="#a6a6a6">
                            </rect>
                            <rect x="331.9" y="293.17" width="7.8" height="1.54" fill="#a6a6a6">
                            </rect>
                        </g>
                        <rect x="25.85" y="286.09" width="145.37" height="3.16" fill="#a6a6a6">
                        </rect>
                        <rect x="25.85" y="292.36" width="65.42" height="2.48" fill="#ffc727">
                        </rect>
                    </g>
                    <g>
                        <g>
                            <rect x="173.52" y="353.82" width="6.55" height="22.33" fill="#ffc727">
                            </rect>
                            <rect x="185.49" y="353.82" width="6.55" height="22.33" fill="#ffc727">
                            </rect>
                        </g>
                        <path d="m207.94,364.99c0,13.89-11.26,25.16-25.16,25.16s-25.16-11.26-25.16-25.16,11.26-25.16,25.16-25.16,25.16,11.26,25.16,25.16Z" fill="none" stroke-miterlimit="10" stroke="#ffc727">
                        </path>
                        <g>
                            <polygon points="123.34 358.92 123.34 371.05 110.88 364.98 123.34 358.92" fill="#ffc727">
                            </polygon>
                            <rect x="108.69" y="357.68" width="2.19" height="14.61" fill="#ffc727">
                            </rect>
                        </g>
                        <g>
                            <polygon points="242.22 371.05 242.22 358.92 254.68 364.98 242.22 371.05" fill="#ffc727">
                            </polygon>
                            <rect x="254.68" y="357.68" width="2.19" height="14.61" fill="#ffc727">
                            </rect>
                        </g>
                    </g>
                </g>
            </g>
        </g>
        <animateTransform id="ani04" attributeName="transform" type="translate" begin="-0.00001" dur="1.35002" keyTimes="0; 0.25925925925925924; 1" values="0, 200; 0, 200; 0" fill="freeze" additive="sum" calcMode="spline" keySplines="0 0 1 1;0.165 0.84 0.44 1">
        </animateTransform>
    </g>
    <g id="Plant" transform-origin="center" style="transform-box: fill-box;">
        <g>
            <g>
                <path d="m394.48,367.28c-15.62,15.29-18.24,38.95-14.95,59.68.09.47.81.34.81-.1,0-4.72-.14-9.39-.13-14.05.09-.21.16-.41.24-.63,4.08-2.96,7.82-6.31,10.15-10.9,2.61-5.13,3.63-10.92,5.63-16.28.19-.51-.36-.36-.72-.1-9.5,7.01-12.53,14.55-15.26,24.63.13-5.23.53-10.46,1.65-15.69,2.05-9.56,6.11-19.04,12.98-26.14.26-.27-.14-.68-.41-.41Z" fill="#455a64">
                </path>
                <g>
                    <path d="m397.42,369.06c2.69.09,4.37,4.39,6.47,5.64,1.11.67,2.19.63,2.97-.47,2.08-2.9-.77-6.47-3.45-8.47,1.91.79,3.5,2.17,5.57,2.56,1.25.23,2.22-.23,2.51-1.51.91-3.95-4.04-5.71-7.44-5.79,1.65-1.15,6.37-4.26,3.86-5.79-2.54-1.54-8.08,2.92-9.89,4.38-2.66,2.16-5.82,5.38-5.94,8.75-.16,3.94,3.28,1.51,5.35.69Z" fill="#ffc727">
                    </path>
                    <path d="m397.42,369.06c2.69.09,4.37,4.39,6.47,5.64,1.11.67,2.19.63,2.97-.47,2.08-2.9-.77-6.47-3.45-8.47,1.91.79,3.5,2.17,5.57,2.56,1.25.23,2.22-.23,2.51-1.51.91-3.95-4.04-5.71-7.44-5.79,1.65-1.15,6.37-4.26,3.86-5.79-2.54-1.54-8.08,2.92-9.89,4.38-2.66,2.16-5.82,5.38-5.94,8.75-.16,3.94,3.28,1.51,5.35.69Z" opacity=".1">
                    </path>
                    <path d="m396.64,369.72c3.44-1.56,10.04.69,10.6-.61,1.14-2.65-4.14-4.46-6.98-4.81,2.62-.71,7.65-1.84,7.49-4.37-.19-3.09-7.71-.43-11.51,2.49-4.79,3.68-4.76,7.22-3.97,7.93,1.09.97,3.81-.36,4.37-.62Z" fill="#ffc727">
                    </path>
                </g>
            </g>
            <g>
                <path d="m358.9,365.76c16.19,14.69,19.71,38.23,17.21,59.07-.07.47-.8.37-.82-.07-.18-4.71-.21-9.39-.41-14.05-.09-.21-.17-.41-.27-.62-4.19-2.81-8.06-6.01-10.56-10.51-2.8-5.03-4.05-10.77-6.24-16.05-.2-.51.35-.38.72-.13,9.76,6.64,13.08,14.06,16.18,24.03-.33-5.22-.92-10.43-2.25-15.62-2.41-9.48-6.83-18.8-13.97-25.63-.27-.26.12-.69.4-.43Z" fill="#455a64">
                </path>
                <g>
                    <path d="m356.04,367.65c-2.68.19-4.2,4.55-6.25,5.88-1.08.71-2.16.71-2.98-.35-2.18-2.82.53-6.5,3.12-8.59-1.88.86-3.42,2.3-5.47,2.77-1.24.28-2.23-.15-2.57-1.41-1.06-3.91,3.82-5.86,7.22-6.07-1.69-1.08-6.53-4.01-4.08-5.64,2.48-1.63,8.19,2.61,10.05,4,2.74,2.05,6.02,5.15,6.27,8.52.31,3.93-3.22,1.64-5.32.89Z" fill="#ffc727">
                    </path>
                    <path d="m356.04,367.65c-2.68.19-4.2,4.55-6.25,5.88-1.08.71-2.16.71-2.98-.35-2.18-2.82.53-6.5,3.12-8.59-1.88.86-3.42,2.3-5.47,2.77-1.24.28-2.23-.15-2.57-1.41-1.06-3.91,3.82-5.86,7.22-6.07-1.69-1.08-6.53-4.01-4.08-5.64,2.48-1.63,8.19,2.61,10.05,4,2.74,2.05,6.02,5.15,6.27,8.52.31,3.93-3.22,1.64-5.32.89Z" opacity=".1">
                    </path>
                    <path d="m356.84,368.29c-3.49-1.43-10,1.07-10.61-.21-1.24-2.6,3.96-4.62,6.8-5.08-2.65-.61-7.71-1.55-7.65-4.08.07-3.09,7.68-.73,11.6,2.05,4.93,3.49,5.03,7.04,4.27,7.78-1.05,1.01-3.82-.22-4.4-.45Z" fill="#ffc727">
                    </path>
                </g>
            </g>
            <g>
                <path d="m375.46,404.55c1.2,7.74,2.68,15.74,5.03,23.22.22.68,1.24.51,1.13-.23-1.06-7.16-3-14.18-4.07-21.34-1.08-7.24-1.66-14.58-1.24-21.91.68-12.06,3.96-24.89,11.83-34.33.17-.22-.19-.54-.37-.33-15.76,18.37-13.25,40.9-13.23,42.91-2.23-7.61-4.53-16.32-12.97-24.07-.36-.33-.65-.18-.59.39,1.51,14.11,5.43,21.47,13.61,29.01.23,2.24.52,4.46.88,6.66Z" fill="#455a64">
                </path>
                <g>
                    <path d="m388.28,352.09c2.83-1.26,6.74,2.35,9.55,2.6,1.49.13,2.58-.45,2.84-1.98.7-4.05-4.06-6.32-7.84-7.05,2.38-.15,4.73.49,7.07-.14,1.41-.39,2.19-1.36,1.85-2.83-1.04-4.56-7.07-3.89-10.64-2.26,1.13-2.02,4.46-7.63,1.09-7.95-3.41-.32-6.92,7.09-8.06,9.52-1.67,3.57-3.34,8.51-1.76,12.07,1.82,4.16,4.17-.08,5.9-1.98Z" fill="#ffc727">
                    </path>
                    <path d="m388.28,352.09c2.83-1.26,6.74,2.35,9.55,2.6,1.49.13,2.58-.45,2.84-1.98.7-4.05-4.06-6.32-7.84-7.05,2.38-.15,4.73.49,7.07-.14,1.41-.39,2.19-1.36,1.85-2.83-1.04-4.56-7.07-3.89-10.64-2.26,1.13-2.02,4.46-7.63,1.09-7.95-3.41-.32-6.92,7.09-8.06,9.52-1.67,3.57-3.34,8.51-1.76,12.07,1.82,4.16,4.17-.08,5.9-1.98Z" opacity=".1">
                    </path>
                    <path d="m387.81,353.17c2.78-3.35,10.76-4.34,10.69-5.97-.15-3.32-6.54-2.55-9.67-1.48,2.36-2.06,7.01-5.76,5.57-8.31-1.75-3.11-8.21,3.43-10.69,8.37-3.12,6.23-1.31,9.89-.13,10.23,1.62.46,3.77-2.29,4.23-2.84Z" fill="#ffc727">
                    </path>
                </g>
            </g>
            <path d="m365.1,408.8l-6.95,53.09h42.28c-.87-4.7-8.74-53.15-8.74-53.15l-26.59.06Z" fill="#ffc727">
            </path>
        </g>
        <animateTransform id="ani05" attributeName="transform" type="translate" begin="-0.00001" dur="1.7000199999999999" keyTimes="0; 0.4117647058823529; 1" values="0, 150; 0, 150; 0" fill="freeze" additive="sum" calcMode="spline" keySplines="0 0 1 1;0.165 0.84 0.44 1">
        </animateTransform>
    </g>
    <g id="Character" transform-origin="center" style="transform-box: fill-box;">
        <g transform-origin="center" style="transform-box: fill-box;">
            <g transform-origin="left top" style="transform-box: fill-box;">
                <g>
                    <g>
                        <path d="m343.87,329.31c-2.75.23-75.66-17.5-78.01-19.93-.25-.27.21-10.93,1.55-19.46.06-.41-27.48-32.25-27.48-32.25l44.99-20.76,24.85,44.34,6.47,11.53s25.34,22.53,27.64,25.48c2.28,2.95,2.75,10.81,0,11.05Z" fill="#ebebeb">
                        </path>
                        <g>
                            <path d="m345.91,329.59c-2.87.25-78.96-17.97-81.42-20.5-.94-.95.11-5.66,2.92-19.17l49.33,2.9s26.73,22.18,29.13,25.25c2.39,3.06,2.91,11.27.04,11.52Z" fill="#ffc727">
                            </path>
                            <g>
                                <g>
                                    <path d="m345.55,326.29c-12.68-3.37-64.14-15.75-76.93-18.12-.1-.02-.12.05-.02.08,12.5,3.61,64.06,15.58,76.9,18.25.27.06.32-.14.05-.21Z" fill="#263238">
                                    </path>
                                    <path d="m341.63,314.16c-3-.85-6.3-.12-8.38,1.29-2,1.35-3.94,3.46-4.48,6.13-.02.08.12.11.15.04,1.92-4.82,7.51-8.11,12.67-7.29.1.02.14-.13.04-.16Z" fill="#263238">
                                    </path>
                                    <path d="m322.1,297.45c-5.09-1.29-11.44-.91-15.61,2.51-.16.13.03.36.2.32,5.18-1.27,10-2,15.35-2.18.38-.01.43-.56.06-.65Z" fill="#263238">
                                    </path>
                                    <path d="m325.67,299.93c-5.09-1.29-11.44-.91-15.61,2.51-.16.13.03.36.2.32,5.18-1.27,10-2,15.35-2.18.38-.01.43-.56.06-.65Z" fill="#263238">
                                    </path>
                                    <path d="m329.25,302.41c-5.09-1.29-11.44-.91-15.61,2.51-.16.13.03.36.2.32,5.18-1.27,10-2,15.35-2.18.38-.01.43-.56.06-.65Z" fill="#263238">
                                    </path>
                                    <path d="m332.82,304.9c-5.09-1.29-11.44-.91-15.61,2.51-.16.13.03.36.2.32,5.18-1.27,10-2,15.35-2.18.38-.01.43-.56.06-.65Z" fill="#263238">
                                    </path>
                                </g>
                                <path d="m330.88,285.15c-2.07-2.76-5.83-1.45-7.95.4-3.44,2.99-6.43,7.61-7.77,11.94-.03.11.04.17.12.18.02.39.38.8.82.63,4.24-1.64,8.97-2.88,12.58-5.77,2.11-1.69,4.16-4.77,2.2-7.39Zm-8.86,9.35c-2.06.86-4.16,1.61-6.19,2.55,1.52-2.33,2.93-4.7,4.69-6.88.84-1.04,1.72-2.08,2.69-3,1.51-1.42,7.55-4.49,6.72,1.19-.45,3.13-5.45,5.11-7.91,6.14Z" fill="#263238">
                                </path>
                                <path d="m302.02,296.35c4.28,1.75,9.17,1.58,13.7,1.95.47.04.7-.46.61-.84.08-.04.13-.12.07-.21-2.52-3.77-6.7-7.36-10.85-9.24-2.56-1.16-6.54-1.35-7.74,1.89-1.13,3.06,1.71,5.43,4.21,6.45Zm-2.39-3.64c-2.41-5.21,4.25-3.99,6.11-3.05,1.19.6,2.33,1.35,3.43,2.11,2.3,1.58,4.33,3.46,6.45,5.26-2.21-.32-4.44-.44-6.66-.68-2.65-.28-8.01-.76-9.33-3.63Z" fill="#263238">
                                </path>
                            </g>
                        </g>
                    </g>
                    <g>
                        <path d="m312.24,283.25l-50.35,10.62s-30.82-48.65-42.78-60.49l-.03-.02c-.79-.78-1.51-1.41-2.17-1.87h-.02c-.73-.37-1.99-.6-3.72-.7h-.02c-15.14-.91-65.4,7.1-100.48,6.99l14.98-22.81,6.64-10.12c39.09-6.9,86.41-25.96,108.88-16.36,24.4,10.43,69.08,94.76,69.08,94.76Z" fill="#37474f">
                        </path>
                        <g>
                            <path d="m305.34,275.01c-8.57,1.64-6.13,1.06-14.68,2.79-4.18.85-25.23,5.06-29,6.5-.08.03-.05.17.04.17,4.03-.22,24.98-4.88,29.15-5.8,8.52-1.89,6.05-1.43,14.55-3.41.16-.04.11-.27-.05-.24Z" fill="#263238">
                            </path>
                            <path d="m261.52,283.6c-6.34-9.26-35.43-55.11-40.76-56.66-4.85-1.41-99.63,6.38-101.03,6.48-.1,0-.1.16,0,.16,11.22-.83,97.95-6.46,100.49-5.63,5.27,1.72,39.95,54.85,40.79,55.95.22.29.73.03.51-.29Z" fill="#263238">
                            </path>
                        </g>
                    </g>
                </g>
                <g>
                    <path d="m84.9,219.56s-1.25,28.8,14.15,42.14c18.42,15.97,132.84,4.64,150.26-2.2,17.42-6.83,16.22-35.55-3.62-41-18.86-5.19-101.03-3.8-103.02-4.45-1.99-.66-8.22-9.38-8.22-9.38l-49.54,14.88Z" fill="#37474f">
                    </path>
                    <g>
                        <path d="m109.11,217.27c-.03-.14-.24-.08-.23.05.24,3.61-.87,7.5-3.07,10.38-2.53,3.31-6.43,5.31-9.96,7.38-.34.2-.04.73.32.6,2.18-.8,4.3-1.9,6.25-3.16,1.78-1.15,3.4-2.55,4.58-4.31,2.19-3.25,2.99-7.11,2.11-10.94Z" fill="#263238">
                        </path>
                        <path d="m141.77,212.32c-.87-.99-1.82-1.92-2.73-2.87-2.15-2.26-4.31-4.53-6.55-6.7-.21-.21-.58.13-.38.35,1.53,1.76,3.13,3.46,4.71,5.17.81.88,1.62,1.75,2.44,2.62.76.81,1.7,1.61,2.29,2.56.61.99-.06,1.91-1.11,2.09-.94.16-1.85-.27-2.61-.78-1.73-1.17-3.15-2.9-4.62-4.37-.9-.9-1.8-1.79-2.72-2.68-.97-.94-2-1.83-2.97-2.76-.06-.06-.17.04-.11.1.86,1.04,1.66,2.13,2.52,3.17.86,1.04,1.73,2.07,2.62,3.09.84.97,1.7,1.91,2.59,2.83.75.78,1.6,1.54,2.58,2.03,1.58.8,4.23.83,4.92-1.18.34-.99-.22-1.95-.86-2.67Z" fill="#263238">
                        </path>
                        <path d="m246.87,259.77c-6.11.49-12.21,1.22-18.32,1.73-6.06.5-12.13.91-18.21,1.22-12.2.63-24.42.91-36.64.82-12.34-.1-25.68-.51-37.99-1.45-5.89-.45-11.86-.76-17.71-1.65-5.28-.8-10.14-2.68-14.27-6.22-8.38-7.19-12.14-18.27-14.07-28.97-.26-1.44-.49-2.88-.69-4.32-.01-.1-.16-.09-.15.01,1.39,11,3.82,22.42,11.31,30.87,3.24,3.66,7.26,6.57,11.86,8.09,5.6,1.86,11.7,2,17.53,2.43,12.36.91,25.75,1.38,38.14,1.58,12.47.2,24.94.04,37.4-.54,12.45-.58,24.9-1.52,37.29-2.89,1.51-.17,3.02-.35,4.53-.58.09-.01.08-.15-.01-.14Z" fill="#263238">
                        </path>
                        <path d="m261.57,232.02c-1.46-4.78-4.64-8.67-8.91-11.22-4.59-2.74-9.94-3.78-15.2-4.22-5.95-.5-11.95-.57-17.92-.78-12.25-.44-24.5-.78-36.75-1.04-12.24-.26-38.61-.68-40.09-.65-.13,0-.14.22-.01.23,11.84.59,22.61,1.05,34.46,1.4,11.91.35,23.81.75,35.72,1.2,5.93.22,11.86.45,17.79.7,5.49.23,11.15.44,16.4,2.24,4.51,1.54,8.63,4.21,11.14,8.35,2.42,4,3.18,8.9,2.59,13.5-.55,4.27-2.28,8.5-4.98,11.85-2.66,3.31-6.14,5.93-10.26,7.08-1.06.3-2.35.54-3.33.8-.07.02-.14.18-.07.18,8.82-.32,16.57-7.25,19.26-15.49,1.48-4.54,1.57-9.55.16-14.12Z" fill="#263238">
                        </path>
                    </g>
                </g>
                <animateTransform id="ani06" attributeName="transform" type="rotate" begin="-0.00001" dur="0.9999034196221891" keyTimes="0; 0.4978839404951348; 1" values="0; 6; 0" fill="freeze" additive="sum" calcMode="spline" keySplines="0.785 0.135 0.15 0.86;0.785 0.135 0.15 0.86" repeatCount="indefinite">
                </animateTransform>
            </g>
            <g transform-origin="center" style="transform-box: fill-box;">
                <g>
                    <path d="m139.19,142.44c23.55,19.03,36.31,35.11,38.55,46.33,3.1,15.54-6.3,20.41-10.61,20.68-11.75.75-32.14-39.89-39.29-58.75-6.77-17.86,6.18-12.44,11.35-8.26Z" fill="#ffc727">
                    </path>
                    <path d="m171.27,208.18c-1.52.82-3,1.22-4.14,1.29-11.74.75-32.14-39.89-39.29-58.76-2.86-7.56-2.2-10.94-.09-12.02l43.52,69.5Z" opacity=".1">
                    </path>
                </g>
                <path d="m82.13,221.16c.18.19,69.39-15.26,70.03-16.07.89-1.14-11.7-53.17-24.82-68.67-3.28-3.87-13.68-3.56-18.32.38-22.98,19.53-27.55,83.69-26.89,84.36Z" fill="#ffc727">
                </path>
                <g>
                    <path d="m101.71,141.23c-19.86,18.12-38.47,48.28-37.44,64.29,1.02,15.82,6.41,13.88,7.96,13.66,9.5-1.33,28.74-46.97,34.26-65.41,5.48-18.3.13-17.03-4.78-12.55Z" fill="#ffc727">
                    </path>
                    <g>
                        <path d="m84,205.9c.96-2.07,1.95-4.13,2.88-6.21l2.85-6.22c1.88-4.16,3.79-8.3,5.59-12.48,1.89-4.15,3.68-8.34,5.47-12.53.9-2.09,1.77-4.2,2.61-6.32.88-2.1,1.67-4.24,2.47-6.38-1.13,4.43-2.68,8.75-4.29,13.02-1.63,4.27-3.43,8.47-5.25,12.66-1.9,4.16-3.8,8.31-5.84,12.4-2.04,4.08-4.15,8.15-6.49,12.07Z" fill="#263238">
                        </path>
                        <path d="m104.03,161.21c.33-.77.74-1.47,1.15-2.16.21-.34.41-.69.64-1.02.23-.34.44-.68.7-1.02-.11.84-.45,1.61-.87,2.32-.44.7-.95,1.36-1.62,1.88Z" fill="#263238">
                        </path>
                    </g>
                </g>
                <g>
                    <g>
                        <path d="m178.22,167.14c-.22-7.52-1.2-18.08-3.61-20.53-2.53-2.57-11.8-11.26-14.61-12.58-2.8-1.32-15.26-7.67-17.8-6.55-2.03.9-.31,6.17,5.61,9.25,5.21,2.7,7.79,4.98,9.27,5.82,1.51.86,4.77,6.4,3.48,8.56-.76,1.27-4.82,2.42-7.12,1.06-2.3-1.36-2.38-6.21-4.9-8.77-2.52-2.56-7.43-2.81-7.86-1.53-.42,1.29,1.12,2.08,3.13,6.83,1.29,3.05.65,9.98,3.76,15.32,1.56,2.69,4.03,9.66,4.03,9.66l26.61-6.53Z" fill="#ad6359">
                        </path>
                        <path d="m146.17,141.06c-.83-.29-1.74-.65-2.3-1.36-.24-.3-.41-.66-.44-1.05-.02-.2,0-.42.05-.62.04-.18.13-.46.3-.57.05-.03-.01-.1-.04-.05-.07.1-.18.18-.25.27-.07.08-.12.17-.17.26-.1.19-.15.38-.17.59-.04.46.1.91.35,1.28.6.9,1.64,1.23,2.67,1.3.04,0,.05-.06.01-.07Z" fill="#263238">
                        </path>
                        <g>
                            <path d="m174.6,146.61c-1.95-3.95-7.25-11.27-12.97-14.21-3.87-1.99-18.48,3.27-18.36,5.96.12,2.7,2.49,2.96,6.04,2.93,1.3-.01,8.32-1.71,9.32-.16,1.44,2.22,2.78,9.42,2.78,9.42l13.19-3.94Z" fill="#ad6359">
                            </path>
                            <path d="m143.72,137.36c2.02-2.65,5.96-3.76,9.84-4.55.06-.01.08.08.02.09-.99.2-7.41,2.35-9.83,4.51-.03.02-.06-.02-.04-.05Z" fill="#263238">
                            </path>
                        </g>
                        <g>
                            <path d="m174.6,146.61c-1.95-3.95-7.25-11.27-12.97-14.21-3.87-1.99-15.79,5.47-15.67,8.17.12,2.7,3.5,3.28,7.41,2.38,1.26-.29,5.66-2.72,6.65-1.18,1.44,2.22,4.93,7.72,4.93,7.72l9.66-2.88Z" fill="#ad6359">
                            </path>
                            <path d="m162.96,146.1c-.31-.62-.42-.84-.75-1.46-.32-.62-.66-1.23-1.03-1.82-.32-.51-.62-1.07-1.1-1.45-.46-.36-1.05-.5-1.63-.51-1.32-.02-2.59.68-3.76,1.2-1.31.57-4,1.45-5.94,1.03-.53-.12-1.06-.26-1.5-.59-.29-.21-.68-.48-.85-.84-.69-1.54.55-3.07,1.76-4.12,2.26-1.96,5.16-3.24,7.95-4.25.68-.25,1.38-.48,2.07-.71.79-.26,1.6-.51,2.46-.42,1.37.14,3.45,1.77,4.1,2.26.05.04.1-.04.05-.08-.78-.61-2.68-2.54-4.89-2.67-.81-.05-1.61.29-2.38.52-.8.25-1.6.52-2.39.81-1.53.57-3.04,1.22-4.47,2.03-1.35.76-2.8,1.66-3.79,2.87-.86,1.05-1.25,2.64-.67,3.9.49,1.07,1.75,1.45,2.33,1.59.58.14,1.14.19,1.74.17.62-.02,2.91-.42,3.89-.69,1.25-.35,2.41-1.03,3.68-1.27.61-.11,1.25-.05,1.77.31.48.34.85.9,1.2,1.36.79,1.04,1.32,1.72,1.94,2.88.15.28.34.22.21-.04Z" fill="#263238">
                            </path>
                        </g>
                        <g>
                            <path d="m176,150.02c-.67-1.85-1.34-9.26-2.5-11.63s-6.71-10.76-9.73-10.75c-3.79.01-.62,7.19,1.04,10.19,1.66,3,.82,7.69.82,7.69l10.38,4.51Z" fill="#ad6359">
                            </path>
                            <path d="m162.57,132.91c.6.96,1.11,2,1.62,3.01.48.96,1.05,1.92,1.38,2.94.33,1.03.41,2.1.4,3.17,0,.53-.05,1.05-.1,1.57-.06.57-.17,1.14-.22,1.71,0,.06-.1.06-.1,0,.07-1.04,0-2.12-.07-3.15-.07-1.08-.27-2.17-.6-3.2-.66-2.06-1.75-3.95-2.44-6-.03-.08.09-.12.14-.05Z" fill="#263238">
                            </path>
                            <path d="m165.49,146.3c.04,1.82-.69,3.58-1.53,5.16-.43.8-.92,1.57-1.46,2.3-.55.73-1.18,1.42-1.79,2.04-1.23,1.27-2.34,2.58-3.2,4.08-.87,1.5-1.49,3.15-1.98,4.87.09-1.78.46-3.59,1.24-5.25.75-1.67,1.92-3.15,3.15-4.45,1.26-1.27,2.31-2.57,3.28-4.05.93-1.47,1.89-2.96,2.3-4.7Z" fill="#263238">
                            </path>
                        </g>
                    </g>
                    <g>
                        <path d="m167.23,209c-7.18-1.86-10.5-14.63-16.27-37.09-1.01-3.94,20.82-24.83,23-21.06,2.75,4.74,8.66,30.03,8.79,36.75.27,13.24-7.14,23.57-15.52,21.4Z" fill="#ad6359">
                        </path>
                        <g>
                            <path d="m153.93,184.41l26.25-20.05s4.34,20.47,2.73,28.64c-1.61,8.17-5.6,17.22-15.59,16.56-7.48-.5-13.38-25.15-13.38-25.15Z" fill="#ffc727">
                            </path>
                            <path d="m159.65,201.14c-.71-1.31-1.31-2.65-1.9-4.01-.59-1.35-1.11-2.74-1.62-4.13-.49-1.39-.96-2.8-1.33-4.23-.38-1.43-.74-2.88-.86-4.36.46,1.41.96,2.79,1.47,4.17l1.51,4.15c.49,1.39.98,2.77,1.43,4.18.46,1.4.92,2.8,1.3,4.24Z" fill="#263238">
                            </path>
                            <path d="m158.52,189c1.29-1.12,2.68-2.13,4.04-3.17,1.36-1.04,2.72-2.07,4.1-3.08,2.76-2.02,5.52-4.02,8.32-5.98.76-.54,1.53-1.07,2.3-1.6.83-.56,1.73-1.02,2.55-1.59.06-.04.13.05.07.1-.67.51-1.27,1.11-1.92,1.63-.68.54-1.38,1.07-2.07,1.59-1.37,1.02-2.74,2.04-4.12,3.05-2.75,2.02-5.52,4.03-8.34,5.96-1.59,1.09-3.17,2.24-4.82,3.23-.1.06-.19-.07-.1-.14Z" fill="#263238">
                            </path>
                        </g>
                    </g>
                </g>
                <g>
                    <path d="m122.16,153.1s-12.24-12.08-20.21-11.84l-6.79,5.97s-2.22.72-2.9-.69c-1.68-3.49-1.99-11.9,5.27-17.33,6.65-4.97,17.5-4.56,26.54-2.13,8.68,2.33,16.2,8.13,13.51,13.79-2.69,5.66-15.42,12.23-15.42,12.23Z" fill="#ffc727">
                    </path>
                    <path d="m123.05,150.44s10-7.08,11.05-11.3c1.05-4.22-7.39-8.29-12.84-9.89-8.44-2.48-14.2-1.96-18.95,2.53s20.74,18.67,20.74,18.67Z" opacity=".1">
                    </path>
                    <g>
                        <g>
                            <path d="m122.67,149.86c-3.17-.19-9.09-6.78-11.12-12.01-.14-.36.84-3.82,1.83-8.08.59-2.59,1.19-5.48,1.54-8.16l16.28,6.3s-2.39,5.4-2.98,10.08c-.04.39-.05.76-.03,1.12,0,.05,0,.11,0,.19.07,2.14-.57,10.87-5.52,10.57Z" fill="#ad6359">
                            </path>
                            <path d="m128.19,139.11c0,.05.01.11,0,.19-.54,0-1.11-.04-1.74-.14-9.53-1.48-10.33-13.44-10.35-17.1l15.11,5.85s-2.4,5.4-3,10.09c-.03.39-.05.75-.03,1.11Z" fill="#263238">
                            </path>
                        </g>
                        <g>
                            <path d="m117.57,101.22c-3.13,5.45-3.92,23.1-.62,27.83,4.79,6.86,14.57,9.65,20.88,3.45,6.12-6.01,6.74-29.02,2.87-33.52-5.7-6.63-18.51-5.81-23.14,2.24Z" fill="#ad6359">
                            </path>
                            <g>
                                <path d="m129.88,114.6c.54-.05,1.03-.18,1.55-.28.59-.11,1.08-.14,1.53-.59.24-.24.24-.74.03-.99-.49-.6-1.25-.64-1.97-.53-.78.12-1.36.41-1.89.99-.52.57.04,1.46.75,1.4Z" fill="#263238">
                                </path>
                                <path d="m141.17,116c-.52-.14-.98-.35-1.48-.54-.57-.21-1.04-.32-1.41-.84-.2-.28-.11-.76.14-.98.58-.51,1.34-.42,2.03-.19.75.25,1.27.63,1.69,1.29.41.64-.29,1.43-.97,1.25Z" fill="#263238">
                                </path>
                                <path d="m128.4,127.96c.24.32.46.74.88.84.4.1.91-.01,1.31-.1.04,0,.07.04.04.07-.38.4-1.06.59-1.59.41-.52-.17-.71-.68-.76-1.18,0-.07.09-.08.12-.04Z" fill="#263238">
                                </path>
                                <path d="m130.17,124.63c.5,1.12,1.38,1.83,2.4,2.19.45.17.94.26,1.43.29.09.01.19.02.28.01.09,0,.17,0,.26,0,.14,0,.23-.1.28-.23h0c0-.05.01-.09,0-.13h0s.01-.11.01-.11c.16-.9.29-2.29.29-2.29.31.22,1.88,1.24,1.92.76.37-3.95.78-8.35.31-12.36,0-.13-.21-.13-.22,0-.5,3.78-.34,7.63-.79,11.44-.51-.29-1.33-.8-1.8-.86-.13.02-.19,2.69-.3,3.09,0,0,0,.02-.01.04-1.55-.04-2.63-.68-3.95-1.92-.08-.08-.18-.02-.13.09Z" fill="#263238">
                                </path>
                                <g>
                                    <path d="m133.54,126.57s-.97.96-2.13,1.18c-.43.08-.87.07-1.31-.12-.9-.39-.79-1.26-.51-1.97.23-.58.59-1.06.59-1.06,0,0,1.17,1.49,3.35,1.97Z" fill="#263238">
                                    </path>
                                    <path d="m131.41,127.75c-.43.08-.87.07-1.31-.12-.9-.39-.79-1.26-.51-1.97.99.26,1.88,1.09,1.82,2.09Z" fill="#ff9abb">
                                    </path>
                                </g>
                                <g>
                                    <path d="m131.84,117.67s-.1.04-.1.09c-.11,1.18-.43,2.51-1.54,2.76-.03,0-.04.07,0,.07,1.32-.02,1.73-1.79,1.64-2.92Z" fill="#263238">
                                    </path>
                                    <path d="m130.94,116.31c-1.87-.38-2.49,3.39-.76,3.74,1.7.35,2.32-3.42.76-3.74Z" fill="#263238">
                                    </path>
                                </g>
                                <g>
                                    <path d="m138.49,118.57s.08.07.07.12c-.24,1.16-.32,2.52.67,3.09.03.02.02.08-.02.06-1.25-.4-1.13-2.22-.72-3.28Z" fill="#263238">
                                    </path>
                                    <path d="m139.74,117.54c1.9.18,1.39,3.96-.36,3.8-1.73-.17-1.23-3.95.36-3.8Z" fill="#263238">
                                    </path>
                                </g>
                            </g>
                            <g>
                                <path d="m116.42,114.75c2.55.7,4.5-5.05,4.5-5.05,0,0,5.92,3.46,8.25-5.08,0,0,6.86,4.43,12.16,3.12,4.53-1.12,8.4-7.33,6.51-12.09-1.06-2.69-5.13-5.95-13.77-1.08,0,0-7.37-8.5-13.52,1.45,0,0-4.79-.64-6.51,3.73-2.72,6.9.17,14.39,2.38,14.99Z" fill="#263238">
                                </path>
                                <path d="m129.32,104.02c0-.09-.14-.09-.14,0-.14,2.19-.32,4.56-2.41,5.82-2.03,1.22-4.5,1.11-6.27-.51-.1-.09-.26.06-.15.15,1.68,1.52,4.12,1.89,6.19.91,2.47-1.17,3.03-3.87,2.79-6.37Z" fill="#263238">
                                </path>
                                <path d="m116.96,113.48c-3.06-2.73-4.97-6.41-4.2-10.62.37-2,1.24-3.95,2.88-5.19,1.5-1.14,3.32-1.22,5.05-1.71.05-.01.04-.09-.01-.09-9.97-.05-11.3,13-4.02,17.99.23.16.51-.2.3-.39Z" fill="#263238">
                                </path>
                                <path d="m149.01,96.03c-2.48-6.56-11.18-4.82-15.31-1.1-.01.01,0,.04.02.03,3.57-2.67,10.04-4.53,13.48-.8,4.15,4.51-.24,13.01-6.22,12.39-.18-.02-.22.29-.04.32,5.41.96,9.92-5.96,8.07-10.84Z" fill="#263238">
                                </path>
                            </g>
                            <g>
                                <path d="m118.02,115.85s-2.7-6.3-5.48-5.45c-2.78.85-1.55,9.43,1.15,11.13,2.7,1.7,4.33-.77,4.33-.77v-4.91Z" fill="#ad6359">
                                </path>
                                <path d="m112.95,112.85s-.07.05-.03.08c1.88,1.26,2.57,3.39,2.91,5.52-.45-.89-1.2-1.48-2.37-.96-.06.03-.03.12.03.12.88,0,1.46.27,1.88,1.06.3.56.45,1.22.63,1.83.06.2.41.17.38-.05,0-.02,0-.03,0-.05.6-2.61-.68-6.7-3.43-7.55Z" fill="#263238">
                                </path>
                            </g>
                        </g>
                    </g>
                    <path d="m123.05,150.44s-9.79-16.73-22.09-18.43l1,9.25s7.34.05,20.21,11.84l.88-2.66Z" fill="#ffc727">
                    </path>
                    <g>
                        <path d="m98.63,141.42c2.25-.27,4.49.24,6.6.91,2.13.69,4.13,1.7,6.04,2.85,1.93,1.12,3.73,2.46,5.49,3.83l2.56,2.17,2.47,2.29.28.26.31-.16c2.32-1.17,4.53-2.5,6.65-3.97,1.06-.74,2.11-1.5,3.07-2.36.97-.85,1.91-1.75,2.69-2.77-1.83,1.81-3.97,3.21-6.13,4.56-1.09.67-2.2,1.29-3.33,1.89-1.12.6-2.26,1.2-3.4,1.73l.59.1-2.47-2.36c-.85-.76-1.73-1.49-2.6-2.22-.92-.68-1.82-1.38-2.76-2.03-.97-.61-1.91-1.26-2.93-1.79-1.99-1.14-4.13-2.01-6.35-2.6-.55-.16-1.12-.26-1.68-.37-.57-.07-1.14-.16-1.71-.19-1.14-.08-2.3-.05-3.4.25Z" fill="#263238">
                        </path>
                        <path d="m95.17,147.23c1.27-.83,2.44-1.79,3.58-2.78,1.12-1,2.22-2.04,3.21-3.19-1.27.83-2.44,1.79-3.58,2.78-1.12,1-2.22,2.04-3.21,3.19Z" fill="#263238">
                        </path>
                    </g>
                    <g>
                        <path d="m118.05,147.44s-1.01,4.77-1.13,11.66c-.05,2.73,1.04,12.51,4.07,12.14,3.03-.36-1.93-6.66-2.82-11.82-.9-5.23.48-8.94.65-12.03l-.78.05Z" fill="#ffc727">
                        </path>
                        <g opacity=".1">
                            <path d="m118.05,147.44s-1.01,4.77-1.13,11.66c-.05,2.73,1.04,12.51,4.07,12.14,3.03-.36-1.93-6.66-2.82-11.82-.9-5.23.48-8.94.65-12.03l-.78.05Z">
                            </path>
                        </g>
                    </g>
                    <g>
                        <path d="m128.81,147.94s1.43,5.15,2.3,11.34c.34,2.45.44,11.37-2.33,11.38-2.77,0,1.01-6.21,1.24-10.95.23-4.81-1.42-8.96-1.91-11.73l.7-.04Z" fill="#ffc727">
                        </path>
                        <g opacity=".1">
                            <path d="m128.81,147.94s1.43,5.15,2.3,11.34c.34,2.45.44,11.37-2.33,11.38-2.77,0,1.01-6.21,1.24-10.95.23-4.81-1.42-8.96-1.91-11.73l.7-.04Z">
                            </path>
                        </g>
                    </g>
                </g>
                <g transform-origin="left bottom" style="transform-box: fill-box;">
                    <g>
                        <path d="m131.54,153.39l38.62-4.16c.96-.21,1.64.36,1.52,1.26l-2.22,16.11c-.12.9-1.01,1.8-1.97,2l-38.62,4.16c-.96.21-1.64-.36-1.52-1.26l2.22-16.11c.12-.9,1-1.8,1.97-2.01Z" fill="#37474f">
                        </path>
                        <path d="m131.26,155.3l38.62-4.16c.96-.21,1.64.36,1.52,1.26l-2.22,16.11c-.12.9-1.01,1.8-1.97,2.01l-38.62,4.16c-.96.21-1.64-.36-1.52-1.25l2.22-16.11c.12-.9,1-1.8,1.97-2.01Z" fill="#455a64">
                        </path>
                        <path d="m132.08,159.91c.76.09,1.44-.46,1.53-1.21.09-.76-.46-1.44-1.21-1.53-.76-.09-1.44.46-1.53,1.21-.09.76.46,1.44,1.21,1.53Z" fill="#263238">
                        </path>
                    </g>
                    <g>
                        <path d="m70.03,219.31c7.14.45,15.54-5.69,37.14-24.05,2.99-2.54-9.26-28.46-12.59-25.91-4.2,3.21-19.79,16.58-20.81,17.7-8.58,9.46-8.59,31.96-3.74,32.26Z" fill="#ad6359">
                        </path>
                        <g>
                            <path d="m87.02,178.02s5.83-9.61,10.45-13.71c6.19-5.49,13.8-7.68,17.04-8.4,6.77-1.51,24.18-.49,24.76,4.58.53,4.59-17.22,2.64-17.22,2.64,0,0,18.42-1,18.04,4.64-.38,5.64-20.86,2.21-20.86,2.21,0,0,18.95-.61,17.64,5.15-.99,4.35-19.71,2.29-19.71,2.29,0,0,16.29-.41,15.46,4.11-.92,4.99-18.31,4.17-18.31,4.17-4.04,11.12-10.75,14.67-15.66,16.71-1.19.49-11.64-24.38-11.64-24.38Z" fill="#ad6359">
                            </path>
                            <g>
                                <path d="m115.67,163.07c2.16-.2,4.34-.41,6.51-.41,2.17,0,4.34.07,6.5.27,5.3.49,8.54,1.62,8.33,1.57-4.92-1.14-12.68-1.25-14.85-1.24-2.17,0-4.33-.1-6.5-.1-.05,0-.05-.08,0-.08Z" fill="#263238">
                                </path>
                                <path d="m115.54,170.9c2.77-.13,5.51-.36,8.29-.37,2.76,0,5.38.22,8.14.41.21.01.13.12-.08.12-2.76-.07-5.32.08-8.08.04-2.75-.04-5.52-.18-8.27-.12-.04,0-.04-.06,0-.07Z" fill="#263238">
                                </path>
                                <path d="m114.22,177.61c4.22-.42,8.51-.06,12.72.4.21.02.09.15-.12.14-4.22-.21-7.54-.41-12.58-.4-.08,0-.1-.14-.01-.15Z" fill="#263238">
                                </path>
                            </g>
                        </g>
                        <g>
                            <path d="m86.75,174.39l11.42,32.13s-23.09,16-28.71,12.63c-5.61-3.37-3.52-22.56,1.98-30.23,2.29-3.2,15.3-14.53,15.3-14.53Z" fill="#ffc727">
                            </path>
                            <path d="m87.13,175.46l-.43-1.05.09.02c-2.14,2.03-4.29,4.05-6.41,6.09-2.13,2.03-4.24,4.09-6.24,6.23-.99,1.07-2.01,2.14-2.84,3.32-.84,1.18-1.54,2.46-2.17,3.77-1.23,2.64-1.96,5.51-2.3,8.45.01-2.95.59-5.93,1.73-8.69.56-1.39,1.28-2.71,2.13-3.95.86-1.25,1.86-2.35,2.85-3.45,2.04-2.15,4.19-4.18,6.39-6.16,2.22-1.95,4.47-3.87,6.8-5.69l.07-.05.02.08.33,1.09Z" fill="#263238">
                            </path>
                            <path d="m82.06,182.92c.67,1.57,1.21,3.2,1.79,4.81.58,1.61,1.14,3.22,1.68,4.84,1.08,3.24,2.14,6.49,3.16,9.75.28.89.56,1.78.82,2.68.28.96.44,1.96.73,2.91.02.07-.09.11-.12.04-.28-.79-.67-1.54-.97-2.33-.31-.81-.6-1.64-.88-2.46-.56-1.62-1.11-3.23-1.65-4.85-1.08-3.24-2.15-6.49-3.13-9.76-.55-1.85-1.16-3.7-1.61-5.58-.03-.11.12-.16.17-.05Z" fill="#263238">
                            </path>
                            <path d="m97.16,203.66c.44.97.85,1.95,1.26,2.93l-.13.1c-5.03,3.57-10.22,7.06-15.98,9.32,3.86-2.22,7.99-4.92,11.81-7.26l3.95-2.4-.08.23c-.28-.97-.58-1.94-.83-2.92h0Z" fill="#263238">
                            </path>
                        </g>
                    </g>
                    <animateTransform id="ani07" attributeName="transform" type="rotate" begin="-0.00001" dur="0.9999034196221891" keyTimes="0; 0.49788394049513485; 1" values="6; 0; 6" fill="freeze" additive="sum" calcMode="spline" keySplines="0.785 0.135 0.15 0.86;0.785 0.135 0.15 0.86" repeatCount="indefinite">
                    </animateTransform>
                </g>
            </g>
        </g>
        <animateTransform id="ani08" attributeName="transform" type="translate" begin="-0.00001" dur="1.497729316619435" keyTimes="0; 0.33239153383976877; 1" values="-350, 0;-350, 0;0" fill="freeze" additive="sum" calcMode="spline" keySplines="0 0 1 1;0.785 0.135 0.15 0.86">
        </animateTransform>
    </g>

    <script>
        document.getElementById('ani01').addEventListener('endEvent', function() {
            document.getElementById('ani01').beginElement();
            document.getElementById('ani02').beginElement();
            document.getElementById('ani03').beginElement();
            document.getElementById('ani04').beginElement();
            document.getElementById('ani05').beginElement();
            document.getElementById('ani06').beginElement();
            document.getElementById('ani07').beginElement();
            document.getElementById('ani08').beginElement();
        });
    </script>
</svg>
